<?xml version="1.0" encoding="utf-8" standalone="no"?>
<!DOCTYPE svg PUBLIC "-//W3C//DTD SVG 1.1//EN"
  "http://www.w3.org/Graphics/SVG/1.1/DTD/svg11.dtd">
<!-- Created with matplotlib (https://matplotlib.org/) -->
<svg height="576pt" version="1.1" viewBox="0 0 864 576" width="864pt" xmlns="http://www.w3.org/2000/svg" xmlns:xlink="http://www.w3.org/1999/xlink">
 <defs>
  <style type="text/css">
*{stroke-linecap:butt;stroke-linejoin:round;}
  </style>
 </defs>
 <g id="figure_1">
  <g id="patch_1">
   <path d="M 0 576 
L 864 576 
L 864 0 
L 0 0 
z
" style="fill:#ffffff;"/>
  </g>
  <g id="axes_1">
   <g id="patch_2">
    <path d="M 108 504 
L 777.6 504 
L 777.6 69.12 
L 108 69.12 
z
" style="fill:#ffffff;"/>
   </g>
   <g id="PathCollection_1">
    <defs>
     <path d="M 0 3 
C 0.795609 3 1.55874 2.683901 2.12132 2.12132 
C 2.683901 1.55874 3 0.795609 3 0 
C 3 -0.795609 2.683901 -1.55874 2.12132 -2.12132 
C 1.55874 -2.683901 0.795609 -3 0 -3 
C -0.795609 -3 -1.55874 -2.683901 -2.12132 -2.12132 
C -2.683901 -1.55874 -3 -0.795609 -3 0 
C -3 0.795609 -2.683901 1.55874 -2.12132 2.12132 
C -1.55874 2.683901 -0.795609 3 0 3 
z
" id="m79fb51f7b2" style="stroke:#1f77b4;"/>
    </defs>
    <g clip-path="url(#pcf46d3e242)">
     <use style="fill:#1f77b4;stroke:#1f77b4;" x="138.464771" xlink:href="#m79fb51f7b2" y="503.999097"/>
     <use style="fill:#1f77b4;stroke:#1f77b4;" x="144.805385" xlink:href="#m79fb51f7b2" y="503.999097"/>
     <use style="fill:#1f77b4;stroke:#1f77b4;" x="151.145998" xlink:href="#m79fb51f7b2" y="503.998195"/>
     <use style="fill:#1f77b4;stroke:#1f77b4;" x="157.486611" xlink:href="#m79fb51f7b2" y="503.998195"/>
     <use style="fill:#1f77b4;stroke:#1f77b4;" x="163.827224" xlink:href="#m79fb51f7b2" y="503.995487"/>
     <use style="fill:#1f77b4;stroke:#1f77b4;" x="170.167837" xlink:href="#m79fb51f7b2" y="503.995487"/>
     <use style="fill:#1f77b4;stroke:#1f77b4;" x="176.50845" xlink:href="#m79fb51f7b2" y="503.995487"/>
     <use style="fill:#1f77b4;stroke:#1f77b4;" x="182.849064" xlink:href="#m79fb51f7b2" y="503.995487"/>
     <use style="fill:#1f77b4;stroke:#1f77b4;" x="189.189677" xlink:href="#m79fb51f7b2" y="503.995487"/>
     <use style="fill:#1f77b4;stroke:#1f77b4;" x="195.53029" xlink:href="#m79fb51f7b2" y="503.993681"/>
     <use style="fill:#1f77b4;stroke:#1f77b4;" x="201.870903" xlink:href="#m79fb51f7b2" y="503.992779"/>
     <use style="fill:#1f77b4;stroke:#1f77b4;" x="208.211516" xlink:href="#m79fb51f7b2" y="503.992779"/>
     <use style="fill:#1f77b4;stroke:#1f77b4;" x="214.55213" xlink:href="#m79fb51f7b2" y="503.990071"/>
     <use style="fill:#1f77b4;stroke:#1f77b4;" x="220.892743" xlink:href="#m79fb51f7b2" y="503.990071"/>
     <use style="fill:#1f77b4;stroke:#1f77b4;" x="227.233356" xlink:href="#m79fb51f7b2" y="503.990071"/>
     <use style="fill:#1f77b4;stroke:#1f77b4;" x="233.573969" xlink:href="#m79fb51f7b2" y="503.990071"/>
     <use style="fill:#1f77b4;stroke:#1f77b4;" x="239.914582" xlink:href="#m79fb51f7b2" y="503.990071"/>
     <use style="fill:#1f77b4;stroke:#1f77b4;" x="246.255195" xlink:href="#m79fb51f7b2" y="503.990071"/>
     <use style="fill:#1f77b4;stroke:#1f77b4;" x="252.595809" xlink:href="#m79fb51f7b2" y="503.990071"/>
     <use style="fill:#1f77b4;stroke:#1f77b4;" x="258.936422" xlink:href="#m79fb51f7b2" y="503.990071"/>
     <use style="fill:#1f77b4;stroke:#1f77b4;" x="265.277035" xlink:href="#m79fb51f7b2" y="503.989168"/>
     <use style="fill:#1f77b4;stroke:#1f77b4;" x="271.617648" xlink:href="#m79fb51f7b2" y="503.989168"/>
     <use style="fill:#1f77b4;stroke:#1f77b4;" x="277.958261" xlink:href="#m79fb51f7b2" y="503.988265"/>
     <use style="fill:#1f77b4;stroke:#1f77b4;" x="284.298874" xlink:href="#m79fb51f7b2" y="503.988265"/>
     <use style="fill:#1f77b4;stroke:#1f77b4;" x="290.639488" xlink:href="#m79fb51f7b2" y="503.988265"/>
     <use style="fill:#1f77b4;stroke:#1f77b4;" x="296.980101" xlink:href="#m79fb51f7b2" y="503.988265"/>
     <use style="fill:#1f77b4;stroke:#1f77b4;" x="303.320714" xlink:href="#m79fb51f7b2" y="503.988265"/>
     <use style="fill:#1f77b4;stroke:#1f77b4;" x="309.661327" xlink:href="#m79fb51f7b2" y="503.988265"/>
     <use style="fill:#1f77b4;stroke:#1f77b4;" x="316.00194" xlink:href="#m79fb51f7b2" y="503.988265"/>
     <use style="fill:#1f77b4;stroke:#1f77b4;" x="322.342554" xlink:href="#m79fb51f7b2" y="503.988265"/>
     <use style="fill:#1f77b4;stroke:#1f77b4;" x="328.683167" xlink:href="#m79fb51f7b2" y="503.98646"/>
     <use style="fill:#1f77b4;stroke:#1f77b4;" x="335.02378" xlink:href="#m79fb51f7b2" y="503.98646"/>
     <use style="fill:#1f77b4;stroke:#1f77b4;" x="341.364393" xlink:href="#m79fb51f7b2" y="503.98646"/>
     <use style="fill:#1f77b4;stroke:#1f77b4;" x="347.705006" xlink:href="#m79fb51f7b2" y="503.953964"/>
     <use style="fill:#1f77b4;stroke:#1f77b4;" x="354.045619" xlink:href="#m79fb51f7b2" y="503.953964"/>
     <use style="fill:#1f77b4;stroke:#1f77b4;" x="360.386233" xlink:href="#m79fb51f7b2" y="503.948548"/>
     <use style="fill:#1f77b4;stroke:#1f77b4;" x="366.726846" xlink:href="#m79fb51f7b2" y="503.947645"/>
     <use style="fill:#1f77b4;stroke:#1f77b4;" x="373.067459" xlink:href="#m79fb51f7b2" y="503.94584"/>
     <use style="fill:#1f77b4;stroke:#1f77b4;" x="379.408072" xlink:href="#m79fb51f7b2" y="503.938619"/>
     <use style="fill:#1f77b4;stroke:#1f77b4;" x="385.748685" xlink:href="#m79fb51f7b2" y="503.933203"/>
     <use style="fill:#1f77b4;stroke:#1f77b4;" x="392.089298" xlink:href="#m79fb51f7b2" y="503.911539"/>
     <use style="fill:#1f77b4;stroke:#1f77b4;" x="398.429912" xlink:href="#m79fb51f7b2" y="503.893485"/>
     <use style="fill:#1f77b4;stroke:#1f77b4;" x="404.770525" xlink:href="#m79fb51f7b2" y="503.865503"/>
     <use style="fill:#1f77b4;stroke:#1f77b4;" x="411.111138" xlink:href="#m79fb51f7b2" y="503.804122"/>
     <use style="fill:#1f77b4;stroke:#1f77b4;" x="417.451751" xlink:href="#m79fb51f7b2" y="503.763502"/>
     <use style="fill:#1f77b4;stroke:#1f77b4;" x="423.792364" xlink:href="#m79fb51f7b2" y="503.637128"/>
     <use style="fill:#1f77b4;stroke:#1f77b4;" x="430.132978" xlink:href="#m79fb51f7b2" y="503.532419"/>
     <use style="fill:#1f77b4;stroke:#1f77b4;" x="436.473591" xlink:href="#m79fb51f7b2" y="503.473746"/>
     <use style="fill:#1f77b4;stroke:#1f77b4;" x="442.814204" xlink:href="#m79fb51f7b2" y="503.134344"/>
     <use style="fill:#1f77b4;stroke:#1f77b4;" x="449.154817" xlink:href="#m79fb51f7b2" y="502.843685"/>
     <use style="fill:#1f77b4;stroke:#1f77b4;" x="455.49543" xlink:href="#m79fb51f7b2" y="502.498867"/>
     <use style="fill:#1f77b4;stroke:#1f77b4;" x="461.836043" xlink:href="#m79fb51f7b2" y="502.033091"/>
     <use style="fill:#1f77b4;stroke:#1f77b4;" x="468.176657" xlink:href="#m79fb51f7b2" y="501.538431"/>
     <use style="fill:#1f77b4;stroke:#1f77b4;" x="474.51727" xlink:href="#m79fb51f7b2" y="500.841573"/>
     <use style="fill:#1f77b4;stroke:#1f77b4;" x="480.857883" xlink:href="#m79fb51f7b2" y="499.818852"/>
     <use style="fill:#1f77b4;stroke:#1f77b4;" x="487.198496" xlink:href="#m79fb51f7b2" y="498.203983"/>
     <use style="fill:#1f77b4;stroke:#1f77b4;" x="493.539109" xlink:href="#m79fb51f7b2" y="496.974553"/>
     <use style="fill:#1f77b4;stroke:#1f77b4;" x="499.879722" xlink:href="#m79fb51f7b2" y="491.654241"/>
     <use style="fill:#1f77b4;stroke:#1f77b4;" x="506.220336" xlink:href="#m79fb51f7b2" y="486.759085"/>
     <use style="fill:#1f77b4;stroke:#1f77b4;" x="512.560949" xlink:href="#m79fb51f7b2" y="480.991953"/>
     <use style="fill:#1f77b4;stroke:#1f77b4;" x="518.901562" xlink:href="#m79fb51f7b2" y="473.962895"/>
     <use style="fill:#1f77b4;stroke:#1f77b4;" x="525.242175" xlink:href="#m79fb51f7b2" y="464.420816"/>
     <use style="fill:#1f77b4;stroke:#1f77b4;" x="531.582788" xlink:href="#m79fb51f7b2" y="455.490744"/>
    </g>
   </g>
   <g id="PathCollection_2">
    <defs>
     <path d="M 0 3 
C 0.795609 3 1.55874 2.683901 2.12132 2.12132 
C 2.683901 1.55874 3 0.795609 3 0 
C 3 -0.795609 2.683901 -1.55874 2.12132 -2.12132 
C 1.55874 -2.683901 0.795609 -3 0 -3 
C -0.795609 -3 -1.55874 -2.683901 -2.12132 -2.12132 
C -2.683901 -1.55874 -3 -0.795609 -3 0 
C -3 0.795609 -2.683901 1.55874 -2.12132 2.12132 
C -1.55874 2.683901 -0.795609 3 0 3 
z
" id="mb1d25080e9" style="stroke:#ff7f0e;"/>
    </defs>
    <g clip-path="url(#pcf46d3e242)">
     <use style="fill:#ff7f0e;stroke:#ff7f0e;" x="537.923402" xlink:href="#mb1d25080e9" y="444.624453"/>
     <use style="fill:#ff7f0e;stroke:#ff7f0e;" x="544.264015" xlink:href="#mb1d25080e9" y="428.324116"/>
     <use style="fill:#ff7f0e;stroke:#ff7f0e;" x="550.604628" xlink:href="#mb1d25080e9" y="412.23771"/>
     <use style="fill:#ff7f0e;stroke:#ff7f0e;" x="556.945241" xlink:href="#mb1d25080e9" y="394.345972"/>
     <use style="fill:#ff7f0e;stroke:#ff7f0e;" x="563.285854" xlink:href="#mb1d25080e9" y="376.827036"/>
    </g>
   </g>
   <g id="PathCollection_3">
    <defs>
     <path d="M 0 3 
C 0.795609 3 1.55874 2.683901 2.12132 2.12132 
C 2.683901 1.55874 3 0.795609 3 0 
C 3 -0.795609 2.683901 -1.55874 2.12132 -2.12132 
C 1.55874 -2.683901 0.795609 -3 0 -3 
C -0.795609 -3 -1.55874 -2.683901 -2.12132 -2.12132 
C -2.683901 -1.55874 -3 -0.795609 -3 0 
C -3 0.795609 -2.683901 1.55874 -2.12132 2.12132 
C -1.55874 2.683901 -0.795609 3 0 3 
z
" id="me00b877f4f" style="stroke:#2ca02c;"/>
    </defs>
    <g clip-path="url(#pcf46d3e242)">
     <use style="fill:#2ca02c;stroke:#2ca02c;" x="569.626467" xlink:href="#me00b877f4f" y="357.942366"/>
     <use style="fill:#2ca02c;stroke:#2ca02c;" x="575.967081" xlink:href="#me00b877f4f" y="334.143584"/>
     <use style="fill:#2ca02c;stroke:#2ca02c;" x="582.307694" xlink:href="#me00b877f4f" y="311.396407"/>
    </g>
   </g>
   <g id="PathCollection_4">
    <defs>
     <path d="M 0 3 
C 0.795609 3 1.55874 2.683901 2.12132 2.12132 
C 2.683901 1.55874 3 0.795609 3 0 
C 3 -0.795609 2.683901 -1.55874 2.12132 -2.12132 
C 1.55874 -2.683901 0.795609 -3 0 -3 
C -0.795609 -3 -1.55874 -2.683901 -2.12132 -2.12132 
C -2.683901 -1.55874 -3 -0.795609 -3 0 
C -3 0.795609 -2.683901 1.55874 -2.12132 2.12132 
C -1.55874 2.683901 -0.795609 3 0 3 
z
" id="m109df22bd7" style="stroke:#d62728;"/>
    </defs>
    <g clip-path="url(#pcf46d3e242)">
     <use style="fill:#d62728;stroke:#d62728;" x="588.648307" xlink:href="#m109df22bd7" y="284.243319"/>
    </g>
   </g>
   <g id="PathCollection_5">
    <defs>
     <path d="M 0 3 
C 0.795609 3 1.55874 2.683901 2.12132 2.12132 
C 2.683901 1.55874 3 0.795609 3 0 
C 3 -0.795609 2.683901 -1.55874 2.12132 -2.12132 
C 1.55874 -2.683901 0.795609 -3 0 -3 
C -0.795609 -3 -1.55874 -2.683901 -2.12132 -2.12132 
C -2.683901 -1.55874 -3 -0.795609 -3 0 
C -3 0.795609 -2.683901 1.55874 -2.12132 2.12132 
C -1.55874 2.683901 -0.795609 3 0 3 
z
" id="m00cc29f6cc" style="stroke:#9467bd;"/>
    </defs>
    <g clip-path="url(#pcf46d3e242)">
     <use style="fill:#9467bd;stroke:#9467bd;" x="594.98892" xlink:href="#m00cc29f6cc" y="253.17176"/>
    </g>
   </g>
   <g id="matplotlib.axis_1">
    <g id="xtick_1">
     <g id="line2d_1">
      <defs>
       <path d="M 0 0 
L 0 3.5 
" id="mf9faa76557" style="stroke:#000000;stroke-width:0.8;"/>
      </defs>
      <g>
       <use style="stroke:#000000;stroke-width:0.8;" x="138.464771" xlink:href="#mf9faa76557" y="504"/>
      </g>
     </g>
     <g id="text_1">
      <!-- 0 -->
      <defs>
       <path d="M 31.78125 66.40625 
Q 24.171875 66.40625 20.328125 58.90625 
Q 16.5 51.421875 16.5 36.375 
Q 16.5 21.390625 20.328125 13.890625 
Q 24.171875 6.390625 31.78125 6.390625 
Q 39.453125 6.390625 43.28125 13.890625 
Q 47.125 21.390625 47.125 36.375 
Q 47.125 51.421875 43.28125 58.90625 
Q 39.453125 66.40625 31.78125 66.40625 
z
M 31.78125 74.21875 
Q 44.046875 74.21875 50.515625 64.515625 
Q 56.984375 54.828125 56.984375 36.375 
Q 56.984375 17.96875 50.515625 8.265625 
Q 44.046875 -1.421875 31.78125 -1.421875 
Q 19.53125 -1.421875 13.0625 8.265625 
Q 6.59375 17.96875 6.59375 36.375 
Q 6.59375 54.828125 13.0625 64.515625 
Q 19.53125 74.21875 31.78125 74.21875 
z
" id="DejaVuSans-48"/>
      </defs>
      <g transform="translate(134.011021 521.637812)scale(0.14 -0.14)">
       <use xlink:href="#DejaVuSans-48"/>
      </g>
     </g>
    </g>
    <g id="xtick_2">
     <g id="line2d_2">
      <g>
       <use style="stroke:#000000;stroke-width:0.8;" x="265.277035" xlink:href="#mf9faa76557" y="504"/>
      </g>
     </g>
     <g id="text_2">
      <!-- 20 -->
      <defs>
       <path d="M 19.1875 8.296875 
L 53.609375 8.296875 
L 53.609375 0 
L 7.328125 0 
L 7.328125 8.296875 
Q 12.9375 14.109375 22.625 23.890625 
Q 32.328125 33.6875 34.8125 36.53125 
Q 39.546875 41.84375 41.421875 45.53125 
Q 43.3125 49.21875 43.3125 52.78125 
Q 43.3125 58.59375 39.234375 62.25 
Q 35.15625 65.921875 28.609375 65.921875 
Q 23.96875 65.921875 18.8125 64.3125 
Q 13.671875 62.703125 7.8125 59.421875 
L 7.8125 69.390625 
Q 13.765625 71.78125 18.9375 73 
Q 24.125 74.21875 28.421875 74.21875 
Q 39.75 74.21875 46.484375 68.546875 
Q 53.21875 62.890625 53.21875 53.421875 
Q 53.21875 48.921875 51.53125 44.890625 
Q 49.859375 40.875 45.40625 35.40625 
Q 44.1875 33.984375 37.640625 27.21875 
Q 31.109375 20.453125 19.1875 8.296875 
z
" id="DejaVuSans-50"/>
      </defs>
      <g transform="translate(256.369535 521.637812)scale(0.14 -0.14)">
       <use xlink:href="#DejaVuSans-50"/>
       <use x="63.623047" xlink:href="#DejaVuSans-48"/>
      </g>
     </g>
    </g>
    <g id="xtick_3">
     <g id="line2d_3">
      <g>
       <use style="stroke:#000000;stroke-width:0.8;" x="392.089298" xlink:href="#mf9faa76557" y="504"/>
      </g>
     </g>
     <g id="text_3">
      <!-- 40 -->
      <defs>
       <path d="M 37.796875 64.3125 
L 12.890625 25.390625 
L 37.796875 25.390625 
z
M 35.203125 72.90625 
L 47.609375 72.90625 
L 47.609375 25.390625 
L 58.015625 25.390625 
L 58.015625 17.1875 
L 47.609375 17.1875 
L 47.609375 0 
L 37.796875 0 
L 37.796875 17.1875 
L 4.890625 17.1875 
L 4.890625 26.703125 
z
" id="DejaVuSans-52"/>
      </defs>
      <g transform="translate(383.181798 521.637812)scale(0.14 -0.14)">
       <use xlink:href="#DejaVuSans-52"/>
       <use x="63.623047" xlink:href="#DejaVuSans-48"/>
      </g>
     </g>
    </g>
    <g id="xtick_4">
     <g id="line2d_4">
      <g>
       <use style="stroke:#000000;stroke-width:0.8;" x="518.901562" xlink:href="#mf9faa76557" y="504"/>
      </g>
     </g>
     <g id="text_4">
      <!-- 60 -->
      <defs>
       <path d="M 33.015625 40.375 
Q 26.375 40.375 22.484375 35.828125 
Q 18.609375 31.296875 18.609375 23.390625 
Q 18.609375 15.53125 22.484375 10.953125 
Q 26.375 6.390625 33.015625 6.390625 
Q 39.65625 6.390625 43.53125 10.953125 
Q 47.40625 15.53125 47.40625 23.390625 
Q 47.40625 31.296875 43.53125 35.828125 
Q 39.65625 40.375 33.015625 40.375 
z
M 52.59375 71.296875 
L 52.59375 62.3125 
Q 48.875 64.0625 45.09375 64.984375 
Q 41.3125 65.921875 37.59375 65.921875 
Q 27.828125 65.921875 22.671875 59.328125 
Q 17.53125 52.734375 16.796875 39.40625 
Q 19.671875 43.65625 24.015625 45.921875 
Q 28.375 48.1875 33.59375 48.1875 
Q 44.578125 48.1875 50.953125 41.515625 
Q 57.328125 34.859375 57.328125 23.390625 
Q 57.328125 12.15625 50.6875 5.359375 
Q 44.046875 -1.421875 33.015625 -1.421875 
Q 20.359375 -1.421875 13.671875 8.265625 
Q 6.984375 17.96875 6.984375 36.375 
Q 6.984375 53.65625 15.1875 63.9375 
Q 23.390625 74.21875 37.203125 74.21875 
Q 40.921875 74.21875 44.703125 73.484375 
Q 48.484375 72.75 52.59375 71.296875 
z
" id="DejaVuSans-54"/>
      </defs>
      <g transform="translate(509.994062 521.637812)scale(0.14 -0.14)">
       <use xlink:href="#DejaVuSans-54"/>
       <use x="63.623047" xlink:href="#DejaVuSans-48"/>
      </g>
     </g>
    </g>
    <g id="xtick_5">
     <g id="line2d_5">
      <g>
       <use style="stroke:#000000;stroke-width:0.8;" x="645.713826" xlink:href="#mf9faa76557" y="504"/>
      </g>
     </g>
     <g id="text_5">
      <!-- 80 -->
      <defs>
       <path d="M 31.78125 34.625 
Q 24.75 34.625 20.71875 30.859375 
Q 16.703125 27.09375 16.703125 20.515625 
Q 16.703125 13.921875 20.71875 10.15625 
Q 24.75 6.390625 31.78125 6.390625 
Q 38.8125 6.390625 42.859375 10.171875 
Q 46.921875 13.96875 46.921875 20.515625 
Q 46.921875 27.09375 42.890625 30.859375 
Q 38.875 34.625 31.78125 34.625 
z
M 21.921875 38.8125 
Q 15.578125 40.375 12.03125 44.71875 
Q 8.5 49.078125 8.5 55.328125 
Q 8.5 64.0625 14.71875 69.140625 
Q 20.953125 74.21875 31.78125 74.21875 
Q 42.671875 74.21875 48.875 69.140625 
Q 55.078125 64.0625 55.078125 55.328125 
Q 55.078125 49.078125 51.53125 44.71875 
Q 48 40.375 41.703125 38.8125 
Q 48.828125 37.15625 52.796875 32.3125 
Q 56.78125 27.484375 56.78125 20.515625 
Q 56.78125 9.90625 50.3125 4.234375 
Q 43.84375 -1.421875 31.78125 -1.421875 
Q 19.734375 -1.421875 13.25 4.234375 
Q 6.78125 9.90625 6.78125 20.515625 
Q 6.78125 27.484375 10.78125 32.3125 
Q 14.796875 37.15625 21.921875 38.8125 
z
M 18.3125 54.390625 
Q 18.3125 48.734375 21.84375 45.5625 
Q 25.390625 42.390625 31.78125 42.390625 
Q 38.140625 42.390625 41.71875 45.5625 
Q 45.3125 48.734375 45.3125 54.390625 
Q 45.3125 60.0625 41.71875 63.234375 
Q 38.140625 66.40625 31.78125 66.40625 
Q 25.390625 66.40625 21.84375 63.234375 
Q 18.3125 60.0625 18.3125 54.390625 
z
" id="DejaVuSans-56"/>
      </defs>
      <g transform="translate(636.806326 521.637812)scale(0.14 -0.14)">
       <use xlink:href="#DejaVuSans-56"/>
       <use x="63.623047" xlink:href="#DejaVuSans-48"/>
      </g>
     </g>
    </g>
    <g id="xtick_6">
     <g id="line2d_6">
      <g>
       <use style="stroke:#000000;stroke-width:0.8;" x="772.526089" xlink:href="#mf9faa76557" y="504"/>
      </g>
     </g>
     <g id="text_6">
      <!-- 100 -->
      <defs>
       <path d="M 12.40625 8.296875 
L 28.515625 8.296875 
L 28.515625 63.921875 
L 10.984375 60.40625 
L 10.984375 69.390625 
L 28.421875 72.90625 
L 38.28125 72.90625 
L 38.28125 8.296875 
L 54.390625 8.296875 
L 54.390625 0 
L 12.40625 0 
z
" id="DejaVuSans-49"/>
      </defs>
      <g transform="translate(759.164839 521.637812)scale(0.14 -0.14)">
       <use xlink:href="#DejaVuSans-49"/>
       <use x="63.623047" xlink:href="#DejaVuSans-48"/>
       <use x="127.246094" xlink:href="#DejaVuSans-48"/>
      </g>
     </g>
    </g>
    <g id="text_7">
     <!-- Days since 22 January 2020 -->
     <defs>
      <path d="M 19.671875 64.796875 
L 19.671875 8.109375 
L 31.59375 8.109375 
Q 46.6875 8.109375 53.6875 14.9375 
Q 60.6875 21.78125 60.6875 36.53125 
Q 60.6875 51.171875 53.6875 57.984375 
Q 46.6875 64.796875 31.59375 64.796875 
z
M 9.8125 72.90625 
L 30.078125 72.90625 
Q 51.265625 72.90625 61.171875 64.09375 
Q 71.09375 55.28125 71.09375 36.53125 
Q 71.09375 17.671875 61.125 8.828125 
Q 51.171875 0 30.078125 0 
L 9.8125 0 
z
" id="DejaVuSans-68"/>
      <path d="M 34.28125 27.484375 
Q 23.390625 27.484375 19.1875 25 
Q 14.984375 22.515625 14.984375 16.5 
Q 14.984375 11.71875 18.140625 8.90625 
Q 21.296875 6.109375 26.703125 6.109375 
Q 34.1875 6.109375 38.703125 11.40625 
Q 43.21875 16.703125 43.21875 25.484375 
L 43.21875 27.484375 
z
M 52.203125 31.203125 
L 52.203125 0 
L 43.21875 0 
L 43.21875 8.296875 
Q 40.140625 3.328125 35.546875 0.953125 
Q 30.953125 -1.421875 24.3125 -1.421875 
Q 15.921875 -1.421875 10.953125 3.296875 
Q 6 8.015625 6 15.921875 
Q 6 25.140625 12.171875 29.828125 
Q 18.359375 34.515625 30.609375 34.515625 
L 43.21875 34.515625 
L 43.21875 35.40625 
Q 43.21875 41.609375 39.140625 45 
Q 35.0625 48.390625 27.6875 48.390625 
Q 23 48.390625 18.546875 47.265625 
Q 14.109375 46.140625 10.015625 43.890625 
L 10.015625 52.203125 
Q 14.9375 54.109375 19.578125 55.046875 
Q 24.21875 56 28.609375 56 
Q 40.484375 56 46.34375 49.84375 
Q 52.203125 43.703125 52.203125 31.203125 
z
" id="DejaVuSans-97"/>
      <path d="M 32.171875 -5.078125 
Q 28.375 -14.84375 24.75 -17.8125 
Q 21.140625 -20.796875 15.09375 -20.796875 
L 7.90625 -20.796875 
L 7.90625 -13.28125 
L 13.1875 -13.28125 
Q 16.890625 -13.28125 18.9375 -11.515625 
Q 21 -9.765625 23.484375 -3.21875 
L 25.09375 0.875 
L 2.984375 54.6875 
L 12.5 54.6875 
L 29.59375 11.921875 
L 46.6875 54.6875 
L 56.203125 54.6875 
z
" id="DejaVuSans-121"/>
      <path d="M 44.28125 53.078125 
L 44.28125 44.578125 
Q 40.484375 46.53125 36.375 47.5 
Q 32.28125 48.484375 27.875 48.484375 
Q 21.1875 48.484375 17.84375 46.4375 
Q 14.5 44.390625 14.5 40.28125 
Q 14.5 37.15625 16.890625 35.375 
Q 19.28125 33.59375 26.515625 31.984375 
L 29.59375 31.296875 
Q 39.15625 29.25 43.1875 25.515625 
Q 47.21875 21.78125 47.21875 15.09375 
Q 47.21875 7.46875 41.1875 3.015625 
Q 35.15625 -1.421875 24.609375 -1.421875 
Q 20.21875 -1.421875 15.453125 -0.5625 
Q 10.6875 0.296875 5.421875 2 
L 5.421875 11.28125 
Q 10.40625 8.6875 15.234375 7.390625 
Q 20.0625 6.109375 24.8125 6.109375 
Q 31.15625 6.109375 34.5625 8.28125 
Q 37.984375 10.453125 37.984375 14.40625 
Q 37.984375 18.0625 35.515625 20.015625 
Q 33.0625 21.96875 24.703125 23.78125 
L 21.578125 24.515625 
Q 13.234375 26.265625 9.515625 29.90625 
Q 5.8125 33.546875 5.8125 39.890625 
Q 5.8125 47.609375 11.28125 51.796875 
Q 16.75 56 26.8125 56 
Q 31.78125 56 36.171875 55.265625 
Q 40.578125 54.546875 44.28125 53.078125 
z
" id="DejaVuSans-115"/>
      <path id="DejaVuSans-32"/>
      <path d="M 9.421875 54.6875 
L 18.40625 54.6875 
L 18.40625 0 
L 9.421875 0 
z
M 9.421875 75.984375 
L 18.40625 75.984375 
L 18.40625 64.59375 
L 9.421875 64.59375 
z
" id="DejaVuSans-105"/>
      <path d="M 54.890625 33.015625 
L 54.890625 0 
L 45.90625 0 
L 45.90625 32.71875 
Q 45.90625 40.484375 42.875 44.328125 
Q 39.84375 48.1875 33.796875 48.1875 
Q 26.515625 48.1875 22.3125 43.546875 
Q 18.109375 38.921875 18.109375 30.90625 
L 18.109375 0 
L 9.078125 0 
L 9.078125 54.6875 
L 18.109375 54.6875 
L 18.109375 46.1875 
Q 21.34375 51.125 25.703125 53.5625 
Q 30.078125 56 35.796875 56 
Q 45.21875 56 50.046875 50.171875 
Q 54.890625 44.34375 54.890625 33.015625 
z
" id="DejaVuSans-110"/>
      <path d="M 48.78125 52.59375 
L 48.78125 44.1875 
Q 44.96875 46.296875 41.140625 47.34375 
Q 37.3125 48.390625 33.40625 48.390625 
Q 24.65625 48.390625 19.8125 42.84375 
Q 14.984375 37.3125 14.984375 27.296875 
Q 14.984375 17.28125 19.8125 11.734375 
Q 24.65625 6.203125 33.40625 6.203125 
Q 37.3125 6.203125 41.140625 7.25 
Q 44.96875 8.296875 48.78125 10.40625 
L 48.78125 2.09375 
Q 45.015625 0.34375 40.984375 -0.53125 
Q 36.96875 -1.421875 32.421875 -1.421875 
Q 20.0625 -1.421875 12.78125 6.34375 
Q 5.515625 14.109375 5.515625 27.296875 
Q 5.515625 40.671875 12.859375 48.328125 
Q 20.21875 56 33.015625 56 
Q 37.15625 56 41.109375 55.140625 
Q 45.0625 54.296875 48.78125 52.59375 
z
" id="DejaVuSans-99"/>
      <path d="M 56.203125 29.59375 
L 56.203125 25.203125 
L 14.890625 25.203125 
Q 15.484375 15.921875 20.484375 11.0625 
Q 25.484375 6.203125 34.421875 6.203125 
Q 39.59375 6.203125 44.453125 7.46875 
Q 49.3125 8.734375 54.109375 11.28125 
L 54.109375 2.78125 
Q 49.265625 0.734375 44.1875 -0.34375 
Q 39.109375 -1.421875 33.890625 -1.421875 
Q 20.796875 -1.421875 13.15625 6.1875 
Q 5.515625 13.8125 5.515625 26.8125 
Q 5.515625 40.234375 12.765625 48.109375 
Q 20.015625 56 32.328125 56 
Q 43.359375 56 49.78125 48.890625 
Q 56.203125 41.796875 56.203125 29.59375 
z
M 47.21875 32.234375 
Q 47.125 39.59375 43.09375 43.984375 
Q 39.0625 48.390625 32.421875 48.390625 
Q 24.90625 48.390625 20.390625 44.140625 
Q 15.875 39.890625 15.1875 32.171875 
z
" id="DejaVuSans-101"/>
      <path d="M 9.8125 72.90625 
L 19.671875 72.90625 
L 19.671875 5.078125 
Q 19.671875 -8.109375 14.671875 -14.0625 
Q 9.671875 -20.015625 -1.421875 -20.015625 
L -5.171875 -20.015625 
L -5.171875 -11.71875 
L -2.09375 -11.71875 
Q 4.4375 -11.71875 7.125 -8.046875 
Q 9.8125 -4.390625 9.8125 5.078125 
z
" id="DejaVuSans-74"/>
      <path d="M 8.5 21.578125 
L 8.5 54.6875 
L 17.484375 54.6875 
L 17.484375 21.921875 
Q 17.484375 14.15625 20.5 10.265625 
Q 23.53125 6.390625 29.59375 6.390625 
Q 36.859375 6.390625 41.078125 11.03125 
Q 45.3125 15.671875 45.3125 23.6875 
L 45.3125 54.6875 
L 54.296875 54.6875 
L 54.296875 0 
L 45.3125 0 
L 45.3125 8.40625 
Q 42.046875 3.421875 37.71875 1 
Q 33.40625 -1.421875 27.6875 -1.421875 
Q 18.265625 -1.421875 13.375 4.4375 
Q 8.5 10.296875 8.5 21.578125 
z
M 31.109375 56 
z
" id="DejaVuSans-117"/>
      <path d="M 41.109375 46.296875 
Q 39.59375 47.171875 37.8125 47.578125 
Q 36.03125 48 33.890625 48 
Q 26.265625 48 22.1875 43.046875 
Q 18.109375 38.09375 18.109375 28.8125 
L 18.109375 0 
L 9.078125 0 
L 9.078125 54.6875 
L 18.109375 54.6875 
L 18.109375 46.1875 
Q 20.953125 51.171875 25.484375 53.578125 
Q 30.03125 56 36.53125 56 
Q 37.453125 56 38.578125 55.875 
Q 39.703125 55.765625 41.0625 55.515625 
z
" id="DejaVuSans-114"/>
     </defs>
     <g transform="translate(344.988125 539.187188)scale(0.14 -0.14)">
      <use xlink:href="#DejaVuSans-68"/>
      <use x="77.001953" xlink:href="#DejaVuSans-97"/>
      <use x="138.28125" xlink:href="#DejaVuSans-121"/>
      <use x="197.460938" xlink:href="#DejaVuSans-115"/>
      <use x="249.560547" xlink:href="#DejaVuSans-32"/>
      <use x="281.347656" xlink:href="#DejaVuSans-115"/>
      <use x="333.447266" xlink:href="#DejaVuSans-105"/>
      <use x="361.230469" xlink:href="#DejaVuSans-110"/>
      <use x="424.609375" xlink:href="#DejaVuSans-99"/>
      <use x="479.589844" xlink:href="#DejaVuSans-101"/>
      <use x="541.113281" xlink:href="#DejaVuSans-32"/>
      <use x="572.900391" xlink:href="#DejaVuSans-50"/>
      <use x="636.523438" xlink:href="#DejaVuSans-50"/>
      <use x="700.146484" xlink:href="#DejaVuSans-32"/>
      <use x="731.933594" xlink:href="#DejaVuSans-74"/>
      <use x="761.425781" xlink:href="#DejaVuSans-97"/>
      <use x="822.705078" xlink:href="#DejaVuSans-110"/>
      <use x="886.083984" xlink:href="#DejaVuSans-117"/>
      <use x="949.462891" xlink:href="#DejaVuSans-97"/>
      <use x="1010.742188" xlink:href="#DejaVuSans-114"/>
      <use x="1051.855469" xlink:href="#DejaVuSans-121"/>
      <use x="1111.035156" xlink:href="#DejaVuSans-32"/>
      <use x="1142.822266" xlink:href="#DejaVuSans-50"/>
      <use x="1206.445312" xlink:href="#DejaVuSans-48"/>
      <use x="1270.068359" xlink:href="#DejaVuSans-50"/>
      <use x="1333.691406" xlink:href="#DejaVuSans-48"/>
     </g>
    </g>
   </g>
   <g id="matplotlib.axis_2">
    <g id="ytick_1">
     <g id="line2d_7">
      <defs>
       <path d="M 0 0 
L -3.5 0 
" id="md5f11d8ae5" style="stroke:#000000;stroke-width:0.8;"/>
      </defs>
      <g>
       <use style="stroke:#000000;stroke-width:0.8;" x="108" xlink:href="#md5f11d8ae5" y="504"/>
      </g>
     </g>
     <g id="text_8">
      <!-- 0 -->
      <g transform="translate(92.0925 509.318906)scale(0.14 -0.14)">
       <use xlink:href="#DejaVuSans-48"/>
      </g>
     </g>
    </g>
    <g id="ytick_2">
     <g id="line2d_8">
      <g>
       <use style="stroke:#000000;stroke-width:0.8;" x="108" xlink:href="#md5f11d8ae5" y="413.733427"/>
      </g>
     </g>
     <g id="text_9">
      <!-- 100000 -->
      <g transform="translate(47.555 419.052333)scale(0.14 -0.14)">
       <use xlink:href="#DejaVuSans-49"/>
       <use x="63.623047" xlink:href="#DejaVuSans-48"/>
       <use x="127.246094" xlink:href="#DejaVuSans-48"/>
       <use x="190.869141" xlink:href="#DejaVuSans-48"/>
       <use x="254.492188" xlink:href="#DejaVuSans-48"/>
       <use x="318.115234" xlink:href="#DejaVuSans-48"/>
      </g>
     </g>
    </g>
    <g id="ytick_3">
     <g id="line2d_9">
      <g>
       <use style="stroke:#000000;stroke-width:0.8;" x="108" xlink:href="#md5f11d8ae5" y="323.466854"/>
      </g>
     </g>
     <g id="text_10">
      <!-- 200000 -->
      <g transform="translate(47.555 328.78576)scale(0.14 -0.14)">
       <use xlink:href="#DejaVuSans-50"/>
       <use x="63.623047" xlink:href="#DejaVuSans-48"/>
       <use x="127.246094" xlink:href="#DejaVuSans-48"/>
       <use x="190.869141" xlink:href="#DejaVuSans-48"/>
       <use x="254.492188" xlink:href="#DejaVuSans-48"/>
       <use x="318.115234" xlink:href="#DejaVuSans-48"/>
      </g>
     </g>
    </g>
    <g id="ytick_4">
     <g id="line2d_10">
      <g>
       <use style="stroke:#000000;stroke-width:0.8;" x="108" xlink:href="#md5f11d8ae5" y="233.20028"/>
      </g>
     </g>
     <g id="text_11">
      <!-- 300000 -->
      <defs>
       <path d="M 40.578125 39.3125 
Q 47.65625 37.796875 51.625 33 
Q 55.609375 28.21875 55.609375 21.1875 
Q 55.609375 10.40625 48.1875 4.484375 
Q 40.765625 -1.421875 27.09375 -1.421875 
Q 22.515625 -1.421875 17.65625 -0.515625 
Q 12.796875 0.390625 7.625 2.203125 
L 7.625 11.71875 
Q 11.71875 9.328125 16.59375 8.109375 
Q 21.484375 6.890625 26.8125 6.890625 
Q 36.078125 6.890625 40.9375 10.546875 
Q 45.796875 14.203125 45.796875 21.1875 
Q 45.796875 27.640625 41.28125 31.265625 
Q 36.765625 34.90625 28.71875 34.90625 
L 20.21875 34.90625 
L 20.21875 43.015625 
L 29.109375 43.015625 
Q 36.375 43.015625 40.234375 45.921875 
Q 44.09375 48.828125 44.09375 54.296875 
Q 44.09375 59.90625 40.109375 62.90625 
Q 36.140625 65.921875 28.71875 65.921875 
Q 24.65625 65.921875 20.015625 65.03125 
Q 15.375 64.15625 9.8125 62.3125 
L 9.8125 71.09375 
Q 15.4375 72.65625 20.34375 73.4375 
Q 25.25 74.21875 29.59375 74.21875 
Q 40.828125 74.21875 47.359375 69.109375 
Q 53.90625 64.015625 53.90625 55.328125 
Q 53.90625 49.265625 50.4375 45.09375 
Q 46.96875 40.921875 40.578125 39.3125 
z
" id="DejaVuSans-51"/>
      </defs>
      <g transform="translate(47.555 238.519187)scale(0.14 -0.14)">
       <use xlink:href="#DejaVuSans-51"/>
       <use x="63.623047" xlink:href="#DejaVuSans-48"/>
       <use x="127.246094" xlink:href="#DejaVuSans-48"/>
       <use x="190.869141" xlink:href="#DejaVuSans-48"/>
       <use x="254.492188" xlink:href="#DejaVuSans-48"/>
       <use x="318.115234" xlink:href="#DejaVuSans-48"/>
      </g>
     </g>
    </g>
    <g id="ytick_5">
     <g id="line2d_11">
      <g>
       <use style="stroke:#000000;stroke-width:0.8;" x="108" xlink:href="#md5f11d8ae5" y="142.933707"/>
      </g>
     </g>
     <g id="text_12">
      <!-- 400000 -->
      <g transform="translate(47.555 148.252613)scale(0.14 -0.14)">
       <use xlink:href="#DejaVuSans-52"/>
       <use x="63.623047" xlink:href="#DejaVuSans-48"/>
       <use x="127.246094" xlink:href="#DejaVuSans-48"/>
       <use x="190.869141" xlink:href="#DejaVuSans-48"/>
       <use x="254.492188" xlink:href="#DejaVuSans-48"/>
       <use x="318.115234" xlink:href="#DejaVuSans-48"/>
      </g>
     </g>
    </g>
    <g id="text_13">
     <!-- Total # of Confirmed Cases -->
     <defs>
      <path d="M -0.296875 72.90625 
L 61.375 72.90625 
L 61.375 64.59375 
L 35.5 64.59375 
L 35.5 0 
L 25.59375 0 
L 25.59375 64.59375 
L -0.296875 64.59375 
z
" id="DejaVuSans-84"/>
      <path d="M 30.609375 48.390625 
Q 23.390625 48.390625 19.1875 42.75 
Q 14.984375 37.109375 14.984375 27.296875 
Q 14.984375 17.484375 19.15625 11.84375 
Q 23.34375 6.203125 30.609375 6.203125 
Q 37.796875 6.203125 41.984375 11.859375 
Q 46.1875 17.53125 46.1875 27.296875 
Q 46.1875 37.015625 41.984375 42.703125 
Q 37.796875 48.390625 30.609375 48.390625 
z
M 30.609375 56 
Q 42.328125 56 49.015625 48.375 
Q 55.71875 40.765625 55.71875 27.296875 
Q 55.71875 13.875 49.015625 6.21875 
Q 42.328125 -1.421875 30.609375 -1.421875 
Q 18.84375 -1.421875 12.171875 6.21875 
Q 5.515625 13.875 5.515625 27.296875 
Q 5.515625 40.765625 12.171875 48.375 
Q 18.84375 56 30.609375 56 
z
" id="DejaVuSans-111"/>
      <path d="M 18.3125 70.21875 
L 18.3125 54.6875 
L 36.8125 54.6875 
L 36.8125 47.703125 
L 18.3125 47.703125 
L 18.3125 18.015625 
Q 18.3125 11.328125 20.140625 9.421875 
Q 21.96875 7.515625 27.59375 7.515625 
L 36.8125 7.515625 
L 36.8125 0 
L 27.59375 0 
Q 17.1875 0 13.234375 3.875 
Q 9.28125 7.765625 9.28125 18.015625 
L 9.28125 47.703125 
L 2.6875 47.703125 
L 2.6875 54.6875 
L 9.28125 54.6875 
L 9.28125 70.21875 
z
" id="DejaVuSans-116"/>
      <path d="M 9.421875 75.984375 
L 18.40625 75.984375 
L 18.40625 0 
L 9.421875 0 
z
" id="DejaVuSans-108"/>
      <path d="M 51.125 44 
L 36.921875 44 
L 32.8125 27.6875 
L 47.125 27.6875 
z
M 43.796875 71.78125 
L 38.71875 51.515625 
L 52.984375 51.515625 
L 58.109375 71.78125 
L 65.921875 71.78125 
L 60.890625 51.515625 
L 76.125 51.515625 
L 76.125 44 
L 58.984375 44 
L 54.984375 27.6875 
L 70.515625 27.6875 
L 70.515625 20.21875 
L 53.078125 20.21875 
L 48 0 
L 40.1875 0 
L 45.21875 20.21875 
L 30.90625 20.21875 
L 25.875 0 
L 18.015625 0 
L 23.09375 20.21875 
L 7.71875 20.21875 
L 7.71875 27.6875 
L 24.90625 27.6875 
L 29 44 
L 13.28125 44 
L 13.28125 51.515625 
L 30.90625 51.515625 
L 35.890625 71.78125 
z
" id="DejaVuSans-35"/>
      <path d="M 37.109375 75.984375 
L 37.109375 68.5 
L 28.515625 68.5 
Q 23.6875 68.5 21.796875 66.546875 
Q 19.921875 64.59375 19.921875 59.515625 
L 19.921875 54.6875 
L 34.71875 54.6875 
L 34.71875 47.703125 
L 19.921875 47.703125 
L 19.921875 0 
L 10.890625 0 
L 10.890625 47.703125 
L 2.296875 47.703125 
L 2.296875 54.6875 
L 10.890625 54.6875 
L 10.890625 58.5 
Q 10.890625 67.625 15.140625 71.796875 
Q 19.390625 75.984375 28.609375 75.984375 
z
" id="DejaVuSans-102"/>
      <path d="M 64.40625 67.28125 
L 64.40625 56.890625 
Q 59.421875 61.53125 53.78125 63.8125 
Q 48.140625 66.109375 41.796875 66.109375 
Q 29.296875 66.109375 22.65625 58.46875 
Q 16.015625 50.828125 16.015625 36.375 
Q 16.015625 21.96875 22.65625 14.328125 
Q 29.296875 6.6875 41.796875 6.6875 
Q 48.140625 6.6875 53.78125 8.984375 
Q 59.421875 11.28125 64.40625 15.921875 
L 64.40625 5.609375 
Q 59.234375 2.09375 53.4375 0.328125 
Q 47.65625 -1.421875 41.21875 -1.421875 
Q 24.65625 -1.421875 15.125 8.703125 
Q 5.609375 18.84375 5.609375 36.375 
Q 5.609375 53.953125 15.125 64.078125 
Q 24.65625 74.21875 41.21875 74.21875 
Q 47.75 74.21875 53.53125 72.484375 
Q 59.328125 70.75 64.40625 67.28125 
z
" id="DejaVuSans-67"/>
      <path d="M 52 44.1875 
Q 55.375 50.25 60.0625 53.125 
Q 64.75 56 71.09375 56 
Q 79.640625 56 84.28125 50.015625 
Q 88.921875 44.046875 88.921875 33.015625 
L 88.921875 0 
L 79.890625 0 
L 79.890625 32.71875 
Q 79.890625 40.578125 77.09375 44.375 
Q 74.3125 48.1875 68.609375 48.1875 
Q 61.625 48.1875 57.5625 43.546875 
Q 53.515625 38.921875 53.515625 30.90625 
L 53.515625 0 
L 44.484375 0 
L 44.484375 32.71875 
Q 44.484375 40.625 41.703125 44.40625 
Q 38.921875 48.1875 33.109375 48.1875 
Q 26.21875 48.1875 22.15625 43.53125 
Q 18.109375 38.875 18.109375 30.90625 
L 18.109375 0 
L 9.078125 0 
L 9.078125 54.6875 
L 18.109375 54.6875 
L 18.109375 46.1875 
Q 21.1875 51.21875 25.484375 53.609375 
Q 29.78125 56 35.6875 56 
Q 41.65625 56 45.828125 52.96875 
Q 50 49.953125 52 44.1875 
z
" id="DejaVuSans-109"/>
      <path d="M 45.40625 46.390625 
L 45.40625 75.984375 
L 54.390625 75.984375 
L 54.390625 0 
L 45.40625 0 
L 45.40625 8.203125 
Q 42.578125 3.328125 38.25 0.953125 
Q 33.9375 -1.421875 27.875 -1.421875 
Q 17.96875 -1.421875 11.734375 6.484375 
Q 5.515625 14.40625 5.515625 27.296875 
Q 5.515625 40.1875 11.734375 48.09375 
Q 17.96875 56 27.875 56 
Q 33.9375 56 38.25 53.625 
Q 42.578125 51.265625 45.40625 46.390625 
z
M 14.796875 27.296875 
Q 14.796875 17.390625 18.875 11.75 
Q 22.953125 6.109375 30.078125 6.109375 
Q 37.203125 6.109375 41.296875 11.75 
Q 45.40625 17.390625 45.40625 27.296875 
Q 45.40625 37.203125 41.296875 42.84375 
Q 37.203125 48.484375 30.078125 48.484375 
Q 22.953125 48.484375 18.875 42.84375 
Q 14.796875 37.203125 14.796875 27.296875 
z
" id="DejaVuSans-100"/>
     </defs>
     <g transform="translate(40.643437 382.830781)rotate(-90)scale(0.14 -0.14)">
      <use xlink:href="#DejaVuSans-84"/>
      <use x="60.818359" xlink:href="#DejaVuSans-111"/>
      <use x="122" xlink:href="#DejaVuSans-116"/>
      <use x="161.208984" xlink:href="#DejaVuSans-97"/>
      <use x="222.488281" xlink:href="#DejaVuSans-108"/>
      <use x="250.271484" xlink:href="#DejaVuSans-32"/>
      <use x="282.058594" xlink:href="#DejaVuSans-35"/>
      <use x="365.847656" xlink:href="#DejaVuSans-32"/>
      <use x="397.634766" xlink:href="#DejaVuSans-111"/>
      <use x="458.816406" xlink:href="#DejaVuSans-102"/>
      <use x="494.021484" xlink:href="#DejaVuSans-32"/>
      <use x="525.808594" xlink:href="#DejaVuSans-67"/>
      <use x="595.632812" xlink:href="#DejaVuSans-111"/>
      <use x="656.814453" xlink:href="#DejaVuSans-110"/>
      <use x="720.193359" xlink:href="#DejaVuSans-102"/>
      <use x="755.398438" xlink:href="#DejaVuSans-105"/>
      <use x="783.181641" xlink:href="#DejaVuSans-114"/>
      <use x="824.279297" xlink:href="#DejaVuSans-109"/>
      <use x="921.691406" xlink:href="#DejaVuSans-101"/>
      <use x="983.214844" xlink:href="#DejaVuSans-100"/>
      <use x="1046.691406" xlink:href="#DejaVuSans-32"/>
      <use x="1078.478516" xlink:href="#DejaVuSans-67"/>
      <use x="1148.302734" xlink:href="#DejaVuSans-97"/>
      <use x="1209.582031" xlink:href="#DejaVuSans-115"/>
      <use x="1261.681641" xlink:href="#DejaVuSans-101"/>
      <use x="1323.205078" xlink:href="#DejaVuSans-115"/>
     </g>
    </g>
   </g>
   <g id="line2d_12">
    <path clip-path="url(#pcf46d3e242)" d="M 138.464771 504 
L 144.805385 504 
L 151.145998 504 
L 157.486611 504 
L 163.827224 504 
L 170.167837 504 
L 176.50845 504 
L 182.849064 504 
L 189.189677 504 
L 195.53029 504 
L 201.870903 504 
L 208.211516 504 
L 214.55213 503.999999 
L 220.892743 503.999999 
L 227.233356 503.999999 
L 233.573969 503.999998 
L 239.914582 503.999998 
L 246.255195 503.999997 
L 252.595809 503.999995 
L 258.936422 503.999993 
L 265.277035 503.999989 
L 271.617648 503.999985 
L 277.958261 503.999977 
L 284.298874 503.999967 
L 290.639488 503.999952 
L 296.980101 503.999929 
L 303.320714 503.999896 
L 309.661327 503.999848 
L 316.00194 503.999778 
L 322.342554 503.999676 
L 328.683167 503.999526 
L 335.02378 503.999306 
L 341.364393 503.998985 
L 347.705006 503.998515 
L 354.045619 503.997828 
L 360.386233 503.996823 
L 366.726846 503.995352 
L 373.067459 503.993201 
L 379.408072 503.990054 
L 385.748685 503.985451 
L 392.089298 503.978718 
L 398.429912 503.96887 
L 404.770525 503.954467 
L 411.111138 503.933404 
L 417.451751 503.902608 
L 423.792364 503.85759 
L 430.132978 503.791805 
L 436.473591 503.69572 
L 442.814204 503.55548 
L 449.154817 503.351011 
L 455.49543 503.05335 
L 461.836043 502.620989 
L 468.176657 501.995 
L 474.51727 501.092905 
L 480.857883 499.801653 
L 487.198496 497.971087 
L 493.539109 495.411089 
L 499.879722 491.898419 
L 506.220336 487.202233 
L 512.560949 481.137314 
L 518.901562 473.645404 
L 525.242175 464.882946 
L 531.582788 455.266248 
L 537.923402 445.421825 
L 544.264015 436.036967 
L 550.604628 427.678354 
L 556.945241 420.672795 
L 563.285854 415.094269 
L 569.626467 410.830425 
L 575.967081 407.67239 
L 582.307694 405.387478 
L 588.648307 403.762135 
L 594.98892 402.619887 
L 601.329533 401.823962 
L 607.670146 401.272647 
L 614.01076 400.892338 
L 620.351373 400.630738 
L 626.691986 400.451147 
L 633.032599 400.328021 
L 639.373212 400.243685 
" style="fill:none;stroke:#1f77b4;stroke-dasharray:1.5,9;stroke-dashoffset:0;stroke-width:1.5;"/>
   </g>
   <g id="line2d_13">
    <path clip-path="url(#pcf46d3e242)" d="M 138.464771 504 
L 144.805385 504 
L 151.145998 503.999999 
L 157.486611 503.999999 
L 163.827224 503.999999 
L 170.167837 503.999999 
L 176.50845 503.999998 
L 182.849064 503.999997 
L 189.189677 503.999996 
L 195.53029 503.999995 
L 201.870903 503.999993 
L 208.211516 503.999991 
L 214.55213 503.999987 
L 220.892743 503.999983 
L 227.233356 503.999976 
L 233.573969 503.999968 
L 239.914582 503.999956 
L 246.255195 503.999941 
L 252.595809 503.999919 
L 258.936422 503.99989 
L 265.277035 503.999851 
L 271.617648 503.999797 
L 277.958261 503.999724 
L 284.298874 503.999624 
L 290.639488 503.999489 
L 296.980101 503.999305 
L 303.320714 503.999054 
L 309.661327 503.998713 
L 316.00194 503.998249 
L 322.342554 503.997618 
L 328.683167 503.99676 
L 335.02378 503.995592 
L 341.364393 503.994003 
L 347.705006 503.991842 
L 354.045619 503.988901 
L 360.386233 503.984901 
L 366.726846 503.979459 
L 373.067459 503.972056 
L 379.408072 503.961986 
L 385.748685 503.948287 
L 392.089298 503.929654 
L 398.429912 503.904309 
L 404.770525 503.869838 
L 411.111138 503.822959 
L 417.451751 503.759214 
L 423.792364 503.67255 
L 430.132978 503.554755 
L 436.473591 503.394698 
L 442.814204 503.177312 
L 449.154817 502.882238 
L 455.49543 502.482035 
L 461.836043 501.939847 
L 468.176657 501.206386 
L 474.51727 500.21617 
L 480.857883 498.882938 
L 487.198496 497.094408 
L 493.539109 494.706807 
L 499.879722 491.54021 
L 506.220336 487.376613 
L 512.560949 481.963915 
L 518.901562 475.030305 
L 525.242175 466.31416 
L 531.582788 455.61301 
L 537.923402 442.849373 
L 544.264015 428.140596 
L 550.604628 411.84748 
L 556.945241 394.571323 
L 563.285854 377.081465 
L 569.626467 360.185672 
L 575.967081 344.586565 
L 582.307694 330.775465 
L 588.648307 318.993676 
L 594.98892 309.257608 
L 601.329533 301.421289 
L 607.670146 295.246726 
L 614.01076 290.462543 
L 620.351373 286.803663 
L 626.691986 284.033198 
L 633.032599 281.951251 
L 639.373212 280.395592 
L 645.713826 279.238122 
L 652.054439 278.379644 
L 658.395052 277.74442 
L 664.735665 277.275208 
L 671.076278 276.929068 
L 677.416891 276.67396 
L 683.757505 276.486075 
L 690.098118 276.347771 
" style="fill:none;stroke:#ff7f0e;stroke-dasharray:4.5,12;stroke-dashoffset:0;stroke-width:1.5;"/>
   </g>
   <g id="line2d_14">
    <path clip-path="url(#pcf46d3e242)" d="M 138.464771 503.999998 
L 144.805385 503.999998 
L 151.145998 503.999997 
L 157.486611 503.999996 
L 163.827224 503.999994 
L 170.167837 503.999992 
L 176.50845 503.99999 
L 182.849064 503.999987 
L 189.189677 503.999983 
L 195.53029 503.999977 
L 201.870903 503.99997 
L 208.211516 503.99996 
L 214.55213 503.999947 
L 220.892743 503.99993 
L 227.233356 503.999908 
L 233.573969 503.999879 
L 239.914582 503.99984 
L 246.255195 503.999788 
L 252.595809 503.999721 
L 258.936422 503.999631 
L 265.277035 503.999513 
L 271.617648 503.999358 
L 277.958261 503.999152 
L 284.298874 503.998881 
L 290.639488 503.998522 
L 296.980101 503.99805 
L 303.320714 503.997425 
L 309.661327 503.996602 
L 316.00194 503.995514 
L 322.342554 503.994079 
L 328.683167 503.992184 
L 335.02378 503.989683 
L 341.364393 503.986382 
L 347.705006 503.982024 
L 354.045619 503.976272 
L 360.386233 503.96868 
L 366.726846 503.958659 
L 373.067459 503.945433 
L 379.408072 503.927976 
L 385.748685 503.904935 
L 392.089298 503.874528 
L 398.429912 503.834399 
L 404.770525 503.781446 
L 411.111138 503.711577 
L 417.451751 503.6194 
L 423.792364 503.497814 
L 430.132978 503.337472 
L 436.473591 503.126083 
L 442.814204 502.847508 
L 449.154817 502.480583 
L 455.49543 501.997622 
L 461.836043 501.362505 
L 468.176657 500.528287 
L 474.51727 499.434266 
L 480.857883 498.002468 
L 487.198496 496.133623 
L 493.539109 493.702845 
L 499.879722 490.555517 
L 506.220336 486.504325 
L 512.560949 481.329013 
L 518.901562 474.781213 
L 525.242175 466.597437 
L 531.582788 456.523548 
L 537.923402 444.352942 
L 544.264015 429.977342 
L 550.604628 413.443025 
L 556.945241 394.997788 
L 563.285854 375.108783 
L 569.626467 354.434165 
L 575.967081 333.745083 
L 582.307694 313.814828 
L 588.648307 295.307329 
L 594.98892 278.697528 
L 601.329533 264.241159 
L 607.670146 251.991149 
L 614.01076 241.843879 
L 620.351373 233.595381 
L 626.691986 226.992496 
L 633.032599 221.771566 
L 639.373212 217.683385 
L 645.713826 214.506543 
L 652.054439 212.052506 
L 658.395052 210.165503 
L 664.735665 208.719632 
L 671.076278 207.614762 
L 677.416891 206.772217 
L 683.757505 206.130728 
L 690.098118 205.642903 
L 696.438731 205.272272 
L 702.779344 204.990877 
L 709.119957 204.777345 
L 715.46057 204.615375 
" style="fill:none;stroke:#2ca02c;stroke-dasharray:15,9;stroke-dashoffset:0;stroke-width:1.5;"/>
   </g>
   <g id="line2d_15">
    <path clip-path="url(#pcf46d3e242)" d="M 138.464771 503.999996 
L 144.805385 503.999994 
L 151.145998 503.999993 
L 157.486611 503.999991 
L 163.827224 503.999988 
L 170.167837 503.999984 
L 176.50845 503.999979 
L 182.849064 503.999973 
L 189.189677 503.999965 
L 195.53029 503.999954 
L 201.870903 503.99994 
L 208.211516 503.999922 
L 214.55213 503.999899 
L 220.892743 503.999868 
L 227.233356 503.999828 
L 233.573969 503.999776 
L 239.914582 503.999708 
L 246.255195 503.99962 
L 252.595809 503.999505 
L 258.936422 503.999356 
L 265.277035 503.999161 
L 271.617648 503.998908 
L 277.958261 503.998578 
L 284.298874 503.998148 
L 290.639488 503.997589 
L 296.980101 503.99686 
L 303.320714 503.995911 
L 309.661327 503.994675 
L 316.00194 503.993066 
L 322.342554 503.990971 
L 328.683167 503.988243 
L 335.02378 503.98469 
L 341.364393 503.980065 
L 347.705006 503.974041 
L 354.045619 503.966197 
L 360.386233 503.955984 
L 366.726846 503.942686 
L 373.067459 503.925371 
L 379.408072 503.902826 
L 385.748685 503.873473 
L 392.089298 503.835258 
L 398.429912 503.785508 
L 404.770525 503.720746 
L 411.111138 503.636452 
L 417.451751 503.526749 
L 423.792364 503.384002 
L 430.132978 503.198299 
L 436.473591 502.956786 
L 442.814204 502.642808 
L 449.154817 502.234823 
L 455.49543 501.705024 
L 461.836043 501.017615 
L 468.176657 500.126667 
L 474.51727 498.97353 
L 480.857883 497.483744 
L 487.198496 495.563521 
L 493.539109 493.095941 
L 499.879722 489.937223 
L 506.220336 485.913755 
L 512.560949 480.820985 
L 518.901562 474.42589 
L 525.242175 466.475313 
L 531.582788 456.71284 
L 537.923402 444.90661 
L 544.264015 430.888746 
L 550.604628 414.603558 
L 556.945241 396.156244 
L 563.285854 375.848248 
L 569.626467 354.183052 
L 575.967081 331.830691 
L 582.307694 309.55166 
L 588.648307 288.096605 
L 594.98892 268.108718 
L 601.329533 250.054551 
L 607.670146 234.196774 
L 614.01076 220.606725 
L 620.351373 209.203552 
L 626.691986 199.803729 
L 633.032599 192.16805 
L 639.373212 186.038942 
L 645.713826 181.166065 
L 652.054439 177.32137 
L 658.395052 174.306121 
L 664.735665 171.952523 
L 671.076278 170.122155 
L 677.416891 168.702777 
L 683.757505 167.604556 
L 690.098118 166.756287 
L 696.438731 166.101954 
L 702.779344 165.597737 
L 709.119957 165.209503 
L 715.46057 164.910757 
L 721.801184 164.680978 
L 728.141797 164.504309 
L 734.48241 164.368512 
" style="fill:none;stroke:#d62728;stroke-dasharray:15,6;stroke-dashoffset:0;stroke-width:1.5;"/>
   </g>
   <g id="line2d_16">
    <path clip-path="url(#pcf46d3e242)" d="M 138.464771 503.999989 
L 144.805385 503.999986 
L 151.145998 503.999983 
L 157.486611 503.999978 
L 163.827224 503.999971 
L 170.167837 503.999963 
L 176.50845 503.999953 
L 182.849064 503.999939 
L 189.189677 503.999922 
L 195.53029 503.9999 
L 201.870903 503.999872 
L 208.211516 503.999836 
L 214.55213 503.99979 
L 220.892743 503.99973 
L 227.233356 503.999654 
L 233.573969 503.999556 
L 239.914582 503.999431 
L 246.255195 503.99927 
L 252.595809 503.999063 
L 258.936422 503.998799 
L 265.277035 503.998459 
L 271.617648 503.998023 
L 277.958261 503.997464 
L 284.298874 503.996747 
L 290.639488 503.995827 
L 296.980101 503.994648 
L 303.320714 503.993134 
L 309.661327 503.991193 
L 316.00194 503.988703 
L 322.342554 503.985509 
L 328.683167 503.981412 
L 335.02378 503.976157 
L 341.364393 503.969416 
L 347.705006 503.960769 
L 354.045619 503.949679 
L 360.386233 503.935453 
L 366.726846 503.917207 
L 373.067459 503.893803 
L 379.408072 503.863787 
L 385.748685 503.825291 
L 392.089298 503.775922 
L 398.429912 503.712611 
L 404.770525 503.631429 
L 411.111138 503.527343 
L 417.451751 503.393907 
L 423.792364 503.222875 
L 430.132978 503.003702 
L 436.473591 502.722915 
L 442.814204 502.363323 
L 449.154817 501.903018 
L 455.49543 501.314138 
L 461.836043 500.561333 
L 468.176657 499.599894 
L 474.51727 498.373499 
L 480.857883 496.811569 
L 487.198496 494.82625 
L 493.539109 492.309135 
L 499.879722 489.127966 
L 506.220336 485.123768 
L 512.560949 480.109162 
L 518.901562 473.869012 
L 525.242175 466.164984 
L 531.582788 456.746022 
L 537.923402 445.366788 
L 544.264015 431.815568 
L 550.604628 415.951397 
L 556.945241 397.747053 
L 563.285854 377.330364 
L 569.626467 355.012396 
L 575.967081 331.289918 
L 582.307694 306.813537 
L 588.648307 282.322236 
L 594.98892 258.556788 
L 601.329533 236.172728 
L 607.670146 215.673748 
L 614.01076 197.378413 
L 620.351373 181.421386 
L 626.691986 167.780834 
L 633.032599 156.319453 
L 639.373212 146.827564 
L 645.713826 139.060565 
L 652.054439 132.767216 
L 658.395052 127.708437 
L 664.735665 123.668055 
L 671.076278 120.457563 
L 677.416891 117.916884 
L 683.757505 115.912753 
L 690.098118 114.335884 
L 696.438731 113.097672 
L 702.779344 112.126916 
L 709.119957 111.366784 
L 715.46057 110.772152 
L 721.801184 110.307339 
L 728.141797 109.944217 
L 734.48241 109.66067 
L 740.823023 109.43934 
L 747.163636 109.266622 
" style="fill:none;stroke:#9467bd;stroke-linecap:square;stroke-width:1.5;"/>
   </g>
   <g id="patch_3">
    <path d="M 108 504 
L 108 69.12 
" style="fill:none;stroke:#000000;stroke-linecap:square;stroke-linejoin:miter;stroke-width:0.8;"/>
   </g>
   <g id="patch_4">
    <path d="M 777.6 504 
L 777.6 69.12 
" style="fill:none;stroke:#000000;stroke-linecap:square;stroke-linejoin:miter;stroke-width:0.8;"/>
   </g>
   <g id="patch_5">
    <path d="M 108 504 
L 777.6 504 
" style="fill:none;stroke:#000000;stroke-linecap:square;stroke-linejoin:miter;stroke-width:0.8;"/>
   </g>
   <g id="patch_6">
    <path d="M 108 69.12 
L 777.6 69.12 
" style="fill:none;stroke:#000000;stroke-linecap:square;stroke-linejoin:miter;stroke-width:0.8;"/>
   </g>
   <g id="text_14">
    <!-- Best logistic fit for the US -->
    <defs>
     <path d="M 19.671875 34.8125 
L 19.671875 8.109375 
L 35.5 8.109375 
Q 43.453125 8.109375 47.28125 11.40625 
Q 51.125 14.703125 51.125 21.484375 
Q 51.125 28.328125 47.28125 31.5625 
Q 43.453125 34.8125 35.5 34.8125 
z
M 19.671875 64.796875 
L 19.671875 42.828125 
L 34.28125 42.828125 
Q 41.5 42.828125 45.03125 45.53125 
Q 48.578125 48.25 48.578125 53.8125 
Q 48.578125 59.328125 45.03125 62.0625 
Q 41.5 64.796875 34.28125 64.796875 
z
M 9.8125 72.90625 
L 35.015625 72.90625 
Q 46.296875 72.90625 52.390625 68.21875 
Q 58.5 63.53125 58.5 54.890625 
Q 58.5 48.1875 55.375 44.234375 
Q 52.25 40.28125 46.1875 39.3125 
Q 53.46875 37.75 57.5 32.78125 
Q 61.53125 27.828125 61.53125 20.40625 
Q 61.53125 10.640625 54.890625 5.3125 
Q 48.25 0 35.984375 0 
L 9.8125 0 
z
" id="DejaVuSans-66"/>
     <path d="M 45.40625 27.984375 
Q 45.40625 37.75 41.375 43.109375 
Q 37.359375 48.484375 30.078125 48.484375 
Q 22.859375 48.484375 18.828125 43.109375 
Q 14.796875 37.75 14.796875 27.984375 
Q 14.796875 18.265625 18.828125 12.890625 
Q 22.859375 7.515625 30.078125 7.515625 
Q 37.359375 7.515625 41.375 12.890625 
Q 45.40625 18.265625 45.40625 27.984375 
z
M 54.390625 6.78125 
Q 54.390625 -7.171875 48.1875 -13.984375 
Q 42 -20.796875 29.203125 -20.796875 
Q 24.46875 -20.796875 20.265625 -20.09375 
Q 16.0625 -19.390625 12.109375 -17.921875 
L 12.109375 -9.1875 
Q 16.0625 -11.328125 19.921875 -12.34375 
Q 23.78125 -13.375 27.78125 -13.375 
Q 36.625 -13.375 41.015625 -8.765625 
Q 45.40625 -4.15625 45.40625 5.171875 
L 45.40625 9.625 
Q 42.625 4.78125 38.28125 2.390625 
Q 33.9375 0 27.875 0 
Q 17.828125 0 11.671875 7.65625 
Q 5.515625 15.328125 5.515625 27.984375 
Q 5.515625 40.671875 11.671875 48.328125 
Q 17.828125 56 27.875 56 
Q 33.9375 56 38.28125 53.609375 
Q 42.625 51.21875 45.40625 46.390625 
L 45.40625 54.6875 
L 54.390625 54.6875 
z
" id="DejaVuSans-103"/>
     <path d="M 54.890625 33.015625 
L 54.890625 0 
L 45.90625 0 
L 45.90625 32.71875 
Q 45.90625 40.484375 42.875 44.328125 
Q 39.84375 48.1875 33.796875 48.1875 
Q 26.515625 48.1875 22.3125 43.546875 
Q 18.109375 38.921875 18.109375 30.90625 
L 18.109375 0 
L 9.078125 0 
L 9.078125 75.984375 
L 18.109375 75.984375 
L 18.109375 46.1875 
Q 21.34375 51.125 25.703125 53.5625 
Q 30.078125 56 35.796875 56 
Q 45.21875 56 50.046875 50.171875 
Q 54.890625 44.34375 54.890625 33.015625 
z
" id="DejaVuSans-104"/>
     <path d="M 8.6875 72.90625 
L 18.609375 72.90625 
L 18.609375 28.609375 
Q 18.609375 16.890625 22.84375 11.734375 
Q 27.09375 6.59375 36.625 6.59375 
Q 46.09375 6.59375 50.34375 11.734375 
Q 54.59375 16.890625 54.59375 28.609375 
L 54.59375 72.90625 
L 64.5 72.90625 
L 64.5 27.390625 
Q 64.5 13.140625 57.4375 5.859375 
Q 50.390625 -1.421875 36.625 -1.421875 
Q 22.796875 -1.421875 15.734375 5.859375 
Q 8.6875 13.140625 8.6875 27.390625 
z
" id="DejaVuSans-85"/>
     <path d="M 53.515625 70.515625 
L 53.515625 60.890625 
Q 47.90625 63.578125 42.921875 64.890625 
Q 37.9375 66.21875 33.296875 66.21875 
Q 25.25 66.21875 20.875 63.09375 
Q 16.5 59.96875 16.5 54.203125 
Q 16.5 49.359375 19.40625 46.890625 
Q 22.3125 44.4375 30.421875 42.921875 
L 36.375 41.703125 
Q 47.40625 39.59375 52.65625 34.296875 
Q 57.90625 29 57.90625 20.125 
Q 57.90625 9.515625 50.796875 4.046875 
Q 43.703125 -1.421875 29.984375 -1.421875 
Q 24.8125 -1.421875 18.96875 -0.25 
Q 13.140625 0.921875 6.890625 3.21875 
L 6.890625 13.375 
Q 12.890625 10.015625 18.65625 8.296875 
Q 24.421875 6.59375 29.984375 6.59375 
Q 38.421875 6.59375 43.015625 9.90625 
Q 47.609375 13.234375 47.609375 19.390625 
Q 47.609375 24.75 44.3125 27.78125 
Q 41.015625 30.8125 33.5 32.328125 
L 27.484375 33.5 
Q 16.453125 35.6875 11.515625 40.375 
Q 6.59375 45.0625 6.59375 53.421875 
Q 6.59375 63.09375 13.40625 68.65625 
Q 20.21875 74.21875 32.171875 74.21875 
Q 37.3125 74.21875 42.625 73.28125 
Q 47.953125 72.359375 53.515625 70.515625 
z
" id="DejaVuSans-83"/>
    </defs>
    <g transform="translate(335.690812 63.12)scale(0.168 -0.168)">
     <use xlink:href="#DejaVuSans-66"/>
     <use x="68.603516" xlink:href="#DejaVuSans-101"/>
     <use x="130.126953" xlink:href="#DejaVuSans-115"/>
     <use x="182.226562" xlink:href="#DejaVuSans-116"/>
     <use x="221.435547" xlink:href="#DejaVuSans-32"/>
     <use x="253.222656" xlink:href="#DejaVuSans-108"/>
     <use x="281.005859" xlink:href="#DejaVuSans-111"/>
     <use x="342.1875" xlink:href="#DejaVuSans-103"/>
     <use x="405.664062" xlink:href="#DejaVuSans-105"/>
     <use x="433.447266" xlink:href="#DejaVuSans-115"/>
     <use x="485.546875" xlink:href="#DejaVuSans-116"/>
     <use x="524.755859" xlink:href="#DejaVuSans-105"/>
     <use x="552.539062" xlink:href="#DejaVuSans-99"/>
     <use x="607.519531" xlink:href="#DejaVuSans-32"/>
     <use x="639.306641" xlink:href="#DejaVuSans-102"/>
     <use x="674.511719" xlink:href="#DejaVuSans-105"/>
     <use x="702.294922" xlink:href="#DejaVuSans-116"/>
     <use x="741.503906" xlink:href="#DejaVuSans-32"/>
     <use x="773.291016" xlink:href="#DejaVuSans-102"/>
     <use x="808.496094" xlink:href="#DejaVuSans-111"/>
     <use x="869.677734" xlink:href="#DejaVuSans-114"/>
     <use x="910.791016" xlink:href="#DejaVuSans-32"/>
     <use x="942.578125" xlink:href="#DejaVuSans-116"/>
     <use x="981.787109" xlink:href="#DejaVuSans-104"/>
     <use x="1045.166016" xlink:href="#DejaVuSans-101"/>
     <use x="1106.689453" xlink:href="#DejaVuSans-32"/>
     <use x="1138.476562" xlink:href="#DejaVuSans-85"/>
     <use x="1211.669922" xlink:href="#DejaVuSans-83"/>
    </g>
   </g>
   <g id="legend_1">
    <g id="patch_7">
     <path d="M 117.8 285.81375 
L 432.382187 285.81375 
Q 435.182187 285.81375 435.182187 283.01375 
L 435.182187 78.92 
Q 435.182187 76.12 432.382187 76.12 
L 117.8 76.12 
Q 115 76.12 115 78.92 
L 115 283.01375 
Q 115 285.81375 117.8 285.81375 
z
" style="fill:#ffffff;opacity:0.8;stroke:#cccccc;stroke-linejoin:miter;"/>
    </g>
    <g id="line2d_17">
     <path d="M 120.6 87.457813 
L 148.6 87.457813 
" style="fill:none;stroke:#1f77b4;stroke-dasharray:1.5,9;stroke-dashoffset:0;stroke-width:1.5;"/>
    </g>
    <g id="line2d_18"/>
    <g id="text_15">
     <!-- Logistic model (10 days ago): 115,147 -->
     <defs>
      <path d="M 9.8125 72.90625 
L 19.671875 72.90625 
L 19.671875 8.296875 
L 55.171875 8.296875 
L 55.171875 0 
L 9.8125 0 
z
" id="DejaVuSans-76"/>
      <path d="M 31 75.875 
Q 24.46875 64.65625 21.28125 53.65625 
Q 18.109375 42.671875 18.109375 31.390625 
Q 18.109375 20.125 21.3125 9.0625 
Q 24.515625 -2 31 -13.1875 
L 23.1875 -13.1875 
Q 15.875 -1.703125 12.234375 9.375 
Q 8.59375 20.453125 8.59375 31.390625 
Q 8.59375 42.28125 12.203125 53.3125 
Q 15.828125 64.359375 23.1875 75.875 
z
" id="DejaVuSans-40"/>
      <path d="M 8.015625 75.875 
L 15.828125 75.875 
Q 23.140625 64.359375 26.78125 53.3125 
Q 30.421875 42.28125 30.421875 31.390625 
Q 30.421875 20.453125 26.78125 9.375 
Q 23.140625 -1.703125 15.828125 -13.1875 
L 8.015625 -13.1875 
Q 14.5 -2 17.703125 9.0625 
Q 20.90625 20.125 20.90625 31.390625 
Q 20.90625 42.671875 17.703125 53.65625 
Q 14.5 64.65625 8.015625 75.875 
z
" id="DejaVuSans-41"/>
      <path d="M 11.71875 12.40625 
L 22.015625 12.40625 
L 22.015625 0 
L 11.71875 0 
z
M 11.71875 51.703125 
L 22.015625 51.703125 
L 22.015625 39.3125 
L 11.71875 39.3125 
z
" id="DejaVuSans-58"/>
      <path d="M 10.796875 72.90625 
L 49.515625 72.90625 
L 49.515625 64.59375 
L 19.828125 64.59375 
L 19.828125 46.734375 
Q 21.96875 47.46875 24.109375 47.828125 
Q 26.265625 48.1875 28.421875 48.1875 
Q 40.625 48.1875 47.75 41.5 
Q 54.890625 34.8125 54.890625 23.390625 
Q 54.890625 11.625 47.5625 5.09375 
Q 40.234375 -1.421875 26.90625 -1.421875 
Q 22.3125 -1.421875 17.546875 -0.640625 
Q 12.796875 0.140625 7.71875 1.703125 
L 7.71875 11.625 
Q 12.109375 9.234375 16.796875 8.0625 
Q 21.484375 6.890625 26.703125 6.890625 
Q 35.15625 6.890625 40.078125 11.328125 
Q 45.015625 15.765625 45.015625 23.390625 
Q 45.015625 31 40.078125 35.4375 
Q 35.15625 39.890625 26.703125 39.890625 
Q 22.75 39.890625 18.8125 39.015625 
Q 14.890625 38.140625 10.796875 36.28125 
z
" id="DejaVuSans-53"/>
      <path d="M 11.71875 12.40625 
L 22.015625 12.40625 
L 22.015625 4 
L 14.015625 -11.625 
L 7.71875 -11.625 
L 11.71875 4 
z
" id="DejaVuSans-44"/>
      <path d="M 8.203125 72.90625 
L 55.078125 72.90625 
L 55.078125 68.703125 
L 28.609375 0 
L 18.3125 0 
L 43.21875 64.59375 
L 8.203125 64.59375 
z
" id="DejaVuSans-55"/>
     </defs>
     <g transform="translate(159.8 92.357813)scale(0.14 -0.14)">
      <use xlink:href="#DejaVuSans-76"/>
      <use x="55.697266" xlink:href="#DejaVuSans-111"/>
      <use x="116.878906" xlink:href="#DejaVuSans-103"/>
      <use x="180.355469" xlink:href="#DejaVuSans-105"/>
      <use x="208.138672" xlink:href="#DejaVuSans-115"/>
      <use x="260.238281" xlink:href="#DejaVuSans-116"/>
      <use x="299.447266" xlink:href="#DejaVuSans-105"/>
      <use x="327.230469" xlink:href="#DejaVuSans-99"/>
      <use x="382.210938" xlink:href="#DejaVuSans-32"/>
      <use x="413.998047" xlink:href="#DejaVuSans-109"/>
      <use x="511.410156" xlink:href="#DejaVuSans-111"/>
      <use x="572.591797" xlink:href="#DejaVuSans-100"/>
      <use x="636.068359" xlink:href="#DejaVuSans-101"/>
      <use x="697.591797" xlink:href="#DejaVuSans-108"/>
      <use x="725.375" xlink:href="#DejaVuSans-32"/>
      <use x="757.162109" xlink:href="#DejaVuSans-40"/>
      <use x="796.175781" xlink:href="#DejaVuSans-49"/>
      <use x="859.798828" xlink:href="#DejaVuSans-48"/>
      <use x="923.421875" xlink:href="#DejaVuSans-32"/>
      <use x="955.208984" xlink:href="#DejaVuSans-100"/>
      <use x="1018.685547" xlink:href="#DejaVuSans-97"/>
      <use x="1079.964844" xlink:href="#DejaVuSans-121"/>
      <use x="1139.144531" xlink:href="#DejaVuSans-115"/>
      <use x="1191.244141" xlink:href="#DejaVuSans-32"/>
      <use x="1223.03125" xlink:href="#DejaVuSans-97"/>
      <use x="1284.310547" xlink:href="#DejaVuSans-103"/>
      <use x="1347.787109" xlink:href="#DejaVuSans-111"/>
      <use x="1408.96875" xlink:href="#DejaVuSans-41"/>
      <use x="1447.982422" xlink:href="#DejaVuSans-58"/>
      <use x="1481.673828" xlink:href="#DejaVuSans-32"/>
      <use x="1513.460938" xlink:href="#DejaVuSans-49"/>
      <use x="1577.083984" xlink:href="#DejaVuSans-49"/>
      <use x="1640.707031" xlink:href="#DejaVuSans-53"/>
      <use x="1704.330078" xlink:href="#DejaVuSans-44"/>
      <use x="1736.117188" xlink:href="#DejaVuSans-49"/>
      <use x="1799.740234" xlink:href="#DejaVuSans-52"/>
      <use x="1863.363281" xlink:href="#DejaVuSans-55"/>
     </g>
    </g>
    <g id="line2d_19">
     <path d="M 120.6 108.007188 
L 148.6 108.007188 
" style="fill:none;stroke:#ff7f0e;stroke-dasharray:4.5,12;stroke-dashoffset:0;stroke-width:1.5;"/>
    </g>
    <g id="line2d_20"/>
    <g id="text_16">
     <!-- Logistic model (5 days ago): 252,626 -->
     <g transform="translate(159.8 112.907188)scale(0.14 -0.14)">
      <use xlink:href="#DejaVuSans-76"/>
      <use x="55.697266" xlink:href="#DejaVuSans-111"/>
      <use x="116.878906" xlink:href="#DejaVuSans-103"/>
      <use x="180.355469" xlink:href="#DejaVuSans-105"/>
      <use x="208.138672" xlink:href="#DejaVuSans-115"/>
      <use x="260.238281" xlink:href="#DejaVuSans-116"/>
      <use x="299.447266" xlink:href="#DejaVuSans-105"/>
      <use x="327.230469" xlink:href="#DejaVuSans-99"/>
      <use x="382.210938" xlink:href="#DejaVuSans-32"/>
      <use x="413.998047" xlink:href="#DejaVuSans-109"/>
      <use x="511.410156" xlink:href="#DejaVuSans-111"/>
      <use x="572.591797" xlink:href="#DejaVuSans-100"/>
      <use x="636.068359" xlink:href="#DejaVuSans-101"/>
      <use x="697.591797" xlink:href="#DejaVuSans-108"/>
      <use x="725.375" xlink:href="#DejaVuSans-32"/>
      <use x="757.162109" xlink:href="#DejaVuSans-40"/>
      <use x="796.175781" xlink:href="#DejaVuSans-53"/>
      <use x="859.798828" xlink:href="#DejaVuSans-32"/>
      <use x="891.585938" xlink:href="#DejaVuSans-100"/>
      <use x="955.0625" xlink:href="#DejaVuSans-97"/>
      <use x="1016.341797" xlink:href="#DejaVuSans-121"/>
      <use x="1075.521484" xlink:href="#DejaVuSans-115"/>
      <use x="1127.621094" xlink:href="#DejaVuSans-32"/>
      <use x="1159.408203" xlink:href="#DejaVuSans-97"/>
      <use x="1220.6875" xlink:href="#DejaVuSans-103"/>
      <use x="1284.164062" xlink:href="#DejaVuSans-111"/>
      <use x="1345.345703" xlink:href="#DejaVuSans-41"/>
      <use x="1384.359375" xlink:href="#DejaVuSans-58"/>
      <use x="1418.050781" xlink:href="#DejaVuSans-32"/>
      <use x="1449.837891" xlink:href="#DejaVuSans-50"/>
      <use x="1513.460938" xlink:href="#DejaVuSans-53"/>
      <use x="1577.083984" xlink:href="#DejaVuSans-50"/>
      <use x="1640.707031" xlink:href="#DejaVuSans-44"/>
      <use x="1672.494141" xlink:href="#DejaVuSans-54"/>
      <use x="1736.117188" xlink:href="#DejaVuSans-50"/>
      <use x="1799.740234" xlink:href="#DejaVuSans-54"/>
     </g>
    </g>
    <g id="line2d_21">
     <path d="M 120.6 128.556563 
L 148.6 128.556563 
" style="fill:none;stroke:#2ca02c;stroke-dasharray:15,9;stroke-dashoffset:0;stroke-width:1.5;"/>
    </g>
    <g id="line2d_22"/>
    <g id="text_17">
     <!-- Logistic model (2 days ago): 332,229 -->
     <defs>
      <path d="M 10.984375 1.515625 
L 10.984375 10.5 
Q 14.703125 8.734375 18.5 7.8125 
Q 22.3125 6.890625 25.984375 6.890625 
Q 35.75 6.890625 40.890625 13.453125 
Q 46.046875 20.015625 46.78125 33.40625 
Q 43.953125 29.203125 39.59375 26.953125 
Q 35.25 24.703125 29.984375 24.703125 
Q 19.046875 24.703125 12.671875 31.3125 
Q 6.296875 37.9375 6.296875 49.421875 
Q 6.296875 60.640625 12.9375 67.421875 
Q 19.578125 74.21875 30.609375 74.21875 
Q 43.265625 74.21875 49.921875 64.515625 
Q 56.59375 54.828125 56.59375 36.375 
Q 56.59375 19.140625 48.40625 8.859375 
Q 40.234375 -1.421875 26.421875 -1.421875 
Q 22.703125 -1.421875 18.890625 -0.6875 
Q 15.09375 0.046875 10.984375 1.515625 
z
M 30.609375 32.421875 
Q 37.25 32.421875 41.125 36.953125 
Q 45.015625 41.5 45.015625 49.421875 
Q 45.015625 57.28125 41.125 61.84375 
Q 37.25 66.40625 30.609375 66.40625 
Q 23.96875 66.40625 20.09375 61.84375 
Q 16.21875 57.28125 16.21875 49.421875 
Q 16.21875 41.5 20.09375 36.953125 
Q 23.96875 32.421875 30.609375 32.421875 
z
" id="DejaVuSans-57"/>
     </defs>
     <g transform="translate(159.8 133.456563)scale(0.14 -0.14)">
      <use xlink:href="#DejaVuSans-76"/>
      <use x="55.697266" xlink:href="#DejaVuSans-111"/>
      <use x="116.878906" xlink:href="#DejaVuSans-103"/>
      <use x="180.355469" xlink:href="#DejaVuSans-105"/>
      <use x="208.138672" xlink:href="#DejaVuSans-115"/>
      <use x="260.238281" xlink:href="#DejaVuSans-116"/>
      <use x="299.447266" xlink:href="#DejaVuSans-105"/>
      <use x="327.230469" xlink:href="#DejaVuSans-99"/>
      <use x="382.210938" xlink:href="#DejaVuSans-32"/>
      <use x="413.998047" xlink:href="#DejaVuSans-109"/>
      <use x="511.410156" xlink:href="#DejaVuSans-111"/>
      <use x="572.591797" xlink:href="#DejaVuSans-100"/>
      <use x="636.068359" xlink:href="#DejaVuSans-101"/>
      <use x="697.591797" xlink:href="#DejaVuSans-108"/>
      <use x="725.375" xlink:href="#DejaVuSans-32"/>
      <use x="757.162109" xlink:href="#DejaVuSans-40"/>
      <use x="796.175781" xlink:href="#DejaVuSans-50"/>
      <use x="859.798828" xlink:href="#DejaVuSans-32"/>
      <use x="891.585938" xlink:href="#DejaVuSans-100"/>
      <use x="955.0625" xlink:href="#DejaVuSans-97"/>
      <use x="1016.341797" xlink:href="#DejaVuSans-121"/>
      <use x="1075.521484" xlink:href="#DejaVuSans-115"/>
      <use x="1127.621094" xlink:href="#DejaVuSans-32"/>
      <use x="1159.408203" xlink:href="#DejaVuSans-97"/>
      <use x="1220.6875" xlink:href="#DejaVuSans-103"/>
      <use x="1284.164062" xlink:href="#DejaVuSans-111"/>
      <use x="1345.345703" xlink:href="#DejaVuSans-41"/>
      <use x="1384.359375" xlink:href="#DejaVuSans-58"/>
      <use x="1418.050781" xlink:href="#DejaVuSans-32"/>
      <use x="1449.837891" xlink:href="#DejaVuSans-51"/>
      <use x="1513.460938" xlink:href="#DejaVuSans-51"/>
      <use x="1577.083984" xlink:href="#DejaVuSans-50"/>
      <use x="1640.707031" xlink:href="#DejaVuSans-44"/>
      <use x="1672.494141" xlink:href="#DejaVuSans-50"/>
      <use x="1736.117188" xlink:href="#DejaVuSans-50"/>
      <use x="1799.740234" xlink:href="#DejaVuSans-57"/>
     </g>
    </g>
    <g id="line2d_23">
     <path d="M 120.6 149.105938 
L 148.6 149.105938 
" style="fill:none;stroke:#d62728;stroke-dasharray:15,6;stroke-dashoffset:0;stroke-width:1.5;"/>
    </g>
    <g id="line2d_24"/>
    <g id="text_18">
     <!-- Logistic model (yesterday): 376,753 -->
     <g transform="translate(159.8 154.005938)scale(0.14 -0.14)">
      <use xlink:href="#DejaVuSans-76"/>
      <use x="55.697266" xlink:href="#DejaVuSans-111"/>
      <use x="116.878906" xlink:href="#DejaVuSans-103"/>
      <use x="180.355469" xlink:href="#DejaVuSans-105"/>
      <use x="208.138672" xlink:href="#DejaVuSans-115"/>
      <use x="260.238281" xlink:href="#DejaVuSans-116"/>
      <use x="299.447266" xlink:href="#DejaVuSans-105"/>
      <use x="327.230469" xlink:href="#DejaVuSans-99"/>
      <use x="382.210938" xlink:href="#DejaVuSans-32"/>
      <use x="413.998047" xlink:href="#DejaVuSans-109"/>
      <use x="511.410156" xlink:href="#DejaVuSans-111"/>
      <use x="572.591797" xlink:href="#DejaVuSans-100"/>
      <use x="636.068359" xlink:href="#DejaVuSans-101"/>
      <use x="697.591797" xlink:href="#DejaVuSans-108"/>
      <use x="725.375" xlink:href="#DejaVuSans-32"/>
      <use x="757.162109" xlink:href="#DejaVuSans-40"/>
      <use x="796.175781" xlink:href="#DejaVuSans-121"/>
      <use x="855.355469" xlink:href="#DejaVuSans-101"/>
      <use x="916.878906" xlink:href="#DejaVuSans-115"/>
      <use x="968.978516" xlink:href="#DejaVuSans-116"/>
      <use x="1008.1875" xlink:href="#DejaVuSans-101"/>
      <use x="1069.710938" xlink:href="#DejaVuSans-114"/>
      <use x="1110.808594" xlink:href="#DejaVuSans-100"/>
      <use x="1174.285156" xlink:href="#DejaVuSans-97"/>
      <use x="1235.564453" xlink:href="#DejaVuSans-121"/>
      <use x="1294.744141" xlink:href="#DejaVuSans-41"/>
      <use x="1333.757812" xlink:href="#DejaVuSans-58"/>
      <use x="1367.449219" xlink:href="#DejaVuSans-32"/>
      <use x="1399.236328" xlink:href="#DejaVuSans-51"/>
      <use x="1462.859375" xlink:href="#DejaVuSans-55"/>
      <use x="1526.482422" xlink:href="#DejaVuSans-54"/>
      <use x="1590.105469" xlink:href="#DejaVuSans-44"/>
      <use x="1621.892578" xlink:href="#DejaVuSans-55"/>
      <use x="1685.515625" xlink:href="#DejaVuSans-53"/>
      <use x="1749.138672" xlink:href="#DejaVuSans-51"/>
     </g>
    </g>
    <g id="line2d_25">
     <path d="M 120.6 169.655313 
L 148.6 169.655313 
" style="fill:none;stroke:#9467bd;stroke-linecap:square;stroke-width:1.5;"/>
    </g>
    <g id="line2d_26"/>
    <g id="text_19">
     <!-- Logistic model (today): 437,975 -->
     <g transform="translate(159.8 174.555313)scale(0.14 -0.14)">
      <use xlink:href="#DejaVuSans-76"/>
      <use x="55.697266" xlink:href="#DejaVuSans-111"/>
      <use x="116.878906" xlink:href="#DejaVuSans-103"/>
      <use x="180.355469" xlink:href="#DejaVuSans-105"/>
      <use x="208.138672" xlink:href="#DejaVuSans-115"/>
      <use x="260.238281" xlink:href="#DejaVuSans-116"/>
      <use x="299.447266" xlink:href="#DejaVuSans-105"/>
      <use x="327.230469" xlink:href="#DejaVuSans-99"/>
      <use x="382.210938" xlink:href="#DejaVuSans-32"/>
      <use x="413.998047" xlink:href="#DejaVuSans-109"/>
      <use x="511.410156" xlink:href="#DejaVuSans-111"/>
      <use x="572.591797" xlink:href="#DejaVuSans-100"/>
      <use x="636.068359" xlink:href="#DejaVuSans-101"/>
      <use x="697.591797" xlink:href="#DejaVuSans-108"/>
      <use x="725.375" xlink:href="#DejaVuSans-32"/>
      <use x="757.162109" xlink:href="#DejaVuSans-40"/>
      <use x="796.175781" xlink:href="#DejaVuSans-116"/>
      <use x="835.384766" xlink:href="#DejaVuSans-111"/>
      <use x="896.566406" xlink:href="#DejaVuSans-100"/>
      <use x="960.042969" xlink:href="#DejaVuSans-97"/>
      <use x="1021.322266" xlink:href="#DejaVuSans-121"/>
      <use x="1080.501953" xlink:href="#DejaVuSans-41"/>
      <use x="1119.515625" xlink:href="#DejaVuSans-58"/>
      <use x="1153.207031" xlink:href="#DejaVuSans-32"/>
      <use x="1184.994141" xlink:href="#DejaVuSans-52"/>
      <use x="1248.617188" xlink:href="#DejaVuSans-51"/>
      <use x="1312.240234" xlink:href="#DejaVuSans-55"/>
      <use x="1375.863281" xlink:href="#DejaVuSans-44"/>
      <use x="1407.650391" xlink:href="#DejaVuSans-57"/>
      <use x="1471.273438" xlink:href="#DejaVuSans-55"/>
      <use x="1534.896484" xlink:href="#DejaVuSans-53"/>
     </g>
    </g>
    <g id="PathCollection_6">
     <g>
      <use style="fill:#1f77b4;stroke:#1f77b4;" x="134.6" xlink:href="#m79fb51f7b2" y="191.429688"/>
     </g>
    </g>
    <g id="text_20">
     <!-- Data (10 days ago) -->
     <g transform="translate(159.8 195.104688)scale(0.14 -0.14)">
      <use xlink:href="#DejaVuSans-68"/>
      <use x="77.001953" xlink:href="#DejaVuSans-97"/>
      <use x="138.28125" xlink:href="#DejaVuSans-116"/>
      <use x="177.490234" xlink:href="#DejaVuSans-97"/>
      <use x="238.769531" xlink:href="#DejaVuSans-32"/>
      <use x="270.556641" xlink:href="#DejaVuSans-40"/>
      <use x="309.570312" xlink:href="#DejaVuSans-49"/>
      <use x="373.193359" xlink:href="#DejaVuSans-48"/>
      <use x="436.816406" xlink:href="#DejaVuSans-32"/>
      <use x="468.603516" xlink:href="#DejaVuSans-100"/>
      <use x="532.080078" xlink:href="#DejaVuSans-97"/>
      <use x="593.359375" xlink:href="#DejaVuSans-121"/>
      <use x="652.539062" xlink:href="#DejaVuSans-115"/>
      <use x="704.638672" xlink:href="#DejaVuSans-32"/>
      <use x="736.425781" xlink:href="#DejaVuSans-97"/>
      <use x="797.705078" xlink:href="#DejaVuSans-103"/>
      <use x="861.181641" xlink:href="#DejaVuSans-111"/>
      <use x="922.363281" xlink:href="#DejaVuSans-41"/>
     </g>
    </g>
    <g id="PathCollection_7">
     <g>
      <use style="fill:#ff7f0e;stroke:#ff7f0e;" x="134.6" xlink:href="#mb1d25080e9" y="211.979062"/>
     </g>
    </g>
    <g id="text_21">
     <!-- Data (5 days ago) -->
     <g transform="translate(159.8 215.654063)scale(0.14 -0.14)">
      <use xlink:href="#DejaVuSans-68"/>
      <use x="77.001953" xlink:href="#DejaVuSans-97"/>
      <use x="138.28125" xlink:href="#DejaVuSans-116"/>
      <use x="177.490234" xlink:href="#DejaVuSans-97"/>
      <use x="238.769531" xlink:href="#DejaVuSans-32"/>
      <use x="270.556641" xlink:href="#DejaVuSans-40"/>
      <use x="309.570312" xlink:href="#DejaVuSans-53"/>
      <use x="373.193359" xlink:href="#DejaVuSans-32"/>
      <use x="404.980469" xlink:href="#DejaVuSans-100"/>
      <use x="468.457031" xlink:href="#DejaVuSans-97"/>
      <use x="529.736328" xlink:href="#DejaVuSans-121"/>
      <use x="588.916016" xlink:href="#DejaVuSans-115"/>
      <use x="641.015625" xlink:href="#DejaVuSans-32"/>
      <use x="672.802734" xlink:href="#DejaVuSans-97"/>
      <use x="734.082031" xlink:href="#DejaVuSans-103"/>
      <use x="797.558594" xlink:href="#DejaVuSans-111"/>
      <use x="858.740234" xlink:href="#DejaVuSans-41"/>
     </g>
    </g>
    <g id="PathCollection_8">
     <g>
      <use style="fill:#2ca02c;stroke:#2ca02c;" x="134.6" xlink:href="#me00b877f4f" y="232.528438"/>
     </g>
    </g>
    <g id="text_22">
     <!-- Data (2 days ago) -->
     <g transform="translate(159.8 236.203438)scale(0.14 -0.14)">
      <use xlink:href="#DejaVuSans-68"/>
      <use x="77.001953" xlink:href="#DejaVuSans-97"/>
      <use x="138.28125" xlink:href="#DejaVuSans-116"/>
      <use x="177.490234" xlink:href="#DejaVuSans-97"/>
      <use x="238.769531" xlink:href="#DejaVuSans-32"/>
      <use x="270.556641" xlink:href="#DejaVuSans-40"/>
      <use x="309.570312" xlink:href="#DejaVuSans-50"/>
      <use x="373.193359" xlink:href="#DejaVuSans-32"/>
      <use x="404.980469" xlink:href="#DejaVuSans-100"/>
      <use x="468.457031" xlink:href="#DejaVuSans-97"/>
      <use x="529.736328" xlink:href="#DejaVuSans-121"/>
      <use x="588.916016" xlink:href="#DejaVuSans-115"/>
      <use x="641.015625" xlink:href="#DejaVuSans-32"/>
      <use x="672.802734" xlink:href="#DejaVuSans-97"/>
      <use x="734.082031" xlink:href="#DejaVuSans-103"/>
      <use x="797.558594" xlink:href="#DejaVuSans-111"/>
      <use x="858.740234" xlink:href="#DejaVuSans-41"/>
     </g>
    </g>
    <g id="PathCollection_9">
     <g>
      <use style="fill:#d62728;stroke:#d62728;" x="134.6" xlink:href="#m109df22bd7" y="253.077812"/>
     </g>
    </g>
    <g id="text_23">
     <!-- Data (yesterday) -->
     <g transform="translate(159.8 256.752813)scale(0.14 -0.14)">
      <use xlink:href="#DejaVuSans-68"/>
      <use x="77.001953" xlink:href="#DejaVuSans-97"/>
      <use x="138.28125" xlink:href="#DejaVuSans-116"/>
      <use x="177.490234" xlink:href="#DejaVuSans-97"/>
      <use x="238.769531" xlink:href="#DejaVuSans-32"/>
      <use x="270.556641" xlink:href="#DejaVuSans-40"/>
      <use x="309.570312" xlink:href="#DejaVuSans-121"/>
      <use x="368.75" xlink:href="#DejaVuSans-101"/>
      <use x="430.273438" xlink:href="#DejaVuSans-115"/>
      <use x="482.373047" xlink:href="#DejaVuSans-116"/>
      <use x="521.582031" xlink:href="#DejaVuSans-101"/>
      <use x="583.105469" xlink:href="#DejaVuSans-114"/>
      <use x="624.203125" xlink:href="#DejaVuSans-100"/>
      <use x="687.679688" xlink:href="#DejaVuSans-97"/>
      <use x="748.958984" xlink:href="#DejaVuSans-121"/>
      <use x="808.138672" xlink:href="#DejaVuSans-41"/>
     </g>
    </g>
    <g id="PathCollection_10">
     <g>
      <use style="fill:#9467bd;stroke:#9467bd;" x="134.6" xlink:href="#m00cc29f6cc" y="273.627188"/>
     </g>
    </g>
    <g id="text_24">
     <!-- Data (today) -->
     <g transform="translate(159.8 277.302188)scale(0.14 -0.14)">
      <use xlink:href="#DejaVuSans-68"/>
      <use x="77.001953" xlink:href="#DejaVuSans-97"/>
      <use x="138.28125" xlink:href="#DejaVuSans-116"/>
      <use x="177.490234" xlink:href="#DejaVuSans-97"/>
      <use x="238.769531" xlink:href="#DejaVuSans-32"/>
      <use x="270.556641" xlink:href="#DejaVuSans-40"/>
      <use x="309.570312" xlink:href="#DejaVuSans-116"/>
      <use x="348.779297" xlink:href="#DejaVuSans-111"/>
      <use x="409.960938" xlink:href="#DejaVuSans-100"/>
      <use x="473.4375" xlink:href="#DejaVuSans-97"/>
      <use x="534.716797" xlink:href="#DejaVuSans-121"/>
      <use x="593.896484" xlink:href="#DejaVuSans-41"/>
     </g>
    </g>
   </g>
  </g>
 </g>
 <defs>
  <clipPath id="pcf46d3e242">
   <rect height="434.88" width="669.6" x="108" y="69.12"/>
  </clipPath>
 </defs>
</svg>
