<?xml version="1.0" encoding="utf-8" standalone="no"?>
<!DOCTYPE svg PUBLIC "-//W3C//DTD SVG 1.1//EN"
  "http://www.w3.org/Graphics/SVG/1.1/DTD/svg11.dtd">
<!-- Created with matplotlib (https://matplotlib.org/) -->
<svg height="576pt" version="1.1" viewBox="0 0 864 576" width="864pt" xmlns="http://www.w3.org/2000/svg" xmlns:xlink="http://www.w3.org/1999/xlink">
 <defs>
  <style type="text/css">
*{stroke-linecap:butt;stroke-linejoin:round;}
  </style>
 </defs>
 <g id="figure_1">
  <g id="patch_1">
   <path d="M 0 576 
L 864 576 
L 864 0 
L 0 0 
z
" style="fill:#ffffff;"/>
  </g>
  <g id="axes_1">
   <g id="patch_2">
    <path d="M 108 504 
L 777.6 504 
L 777.6 69.12 
L 108 69.12 
z
" style="fill:#ffffff;"/>
   </g>
   <g id="PathCollection_1">
    <defs>
     <path d="M 0 3 
C 0.795609 3 1.55874 2.683901 2.12132 2.12132 
C 2.683901 1.55874 3 0.795609 3 0 
C 3 -0.795609 2.683901 -1.55874 2.12132 -2.12132 
C 1.55874 -2.683901 0.795609 -3 0 -3 
C -0.795609 -3 -1.55874 -2.683901 -2.12132 -2.12132 
C -2.683901 -1.55874 -3 -0.795609 -3 0 
C -3 0.795609 -2.683901 1.55874 -2.12132 2.12132 
C -1.55874 2.683901 -0.795609 3 0 3 
z
" id="m72aba785cb" style="stroke:#1f77b4;"/>
    </defs>
    <g clip-path="url(#p2d9774f878)">
     <use style="fill:#1f77b4;stroke:#1f77b4;" x="528.273343" xlink:href="#m72aba785cb" y="399.901812"/>
     <use style="fill:#1f77b4;stroke:#1f77b4;" x="533.61213" xlink:href="#m72aba785cb" y="385.224215"/>
     <use style="fill:#1f77b4;stroke:#1f77b4;" x="538.950918" xlink:href="#m72aba785cb" y="368.476836"/>
     <use style="fill:#1f77b4;stroke:#1f77b4;" x="544.289706" xlink:href="#m72aba785cb" y="349.368118"/>
     <use style="fill:#1f77b4;stroke:#1f77b4;" x="549.628493" xlink:href="#m72aba785cb" y="327.565136"/>
    </g>
   </g>
   <g id="PathCollection_2">
    <defs>
     <path d="M 0 3 
C 0.795609 3 1.55874 2.683901 2.12132 2.12132 
C 2.683901 1.55874 3 0.795609 3 0 
C 3 -0.795609 2.683901 -1.55874 2.12132 -2.12132 
C 1.55874 -2.683901 0.795609 -3 0 -3 
C -0.795609 -3 -1.55874 -2.683901 -2.12132 -2.12132 
C -2.683901 -1.55874 -3 -0.795609 -3 0 
C -3 0.795609 -2.683901 1.55874 -2.12132 2.12132 
C -1.55874 2.683901 -0.795609 3 0 3 
z
" id="m515adb4317" style="stroke:#ff7f0e;"/>
    </defs>
    <g clip-path="url(#p2d9774f878)">
     <use style="fill:#ff7f0e;stroke:#ff7f0e;" x="138.541844" xlink:href="#m515adb4317" y="503.999672"/>
     <use style="fill:#ff7f0e;stroke:#ff7f0e;" x="143.880632" xlink:href="#m515adb4317" y="503.999672"/>
     <use style="fill:#ff7f0e;stroke:#ff7f0e;" x="149.21942" xlink:href="#m515adb4317" y="503.999343"/>
     <use style="fill:#ff7f0e;stroke:#ff7f0e;" x="154.558207" xlink:href="#m515adb4317" y="503.999343"/>
     <use style="fill:#ff7f0e;stroke:#ff7f0e;" x="159.896995" xlink:href="#m515adb4317" y="503.998358"/>
     <use style="fill:#ff7f0e;stroke:#ff7f0e;" x="165.235783" xlink:href="#m515adb4317" y="503.998358"/>
     <use style="fill:#ff7f0e;stroke:#ff7f0e;" x="170.57457" xlink:href="#m515adb4317" y="503.998358"/>
     <use style="fill:#ff7f0e;stroke:#ff7f0e;" x="175.913358" xlink:href="#m515adb4317" y="503.998358"/>
     <use style="fill:#ff7f0e;stroke:#ff7f0e;" x="181.252146" xlink:href="#m515adb4317" y="503.998358"/>
     <use style="fill:#ff7f0e;stroke:#ff7f0e;" x="186.590933" xlink:href="#m515adb4317" y="503.997702"/>
     <use style="fill:#ff7f0e;stroke:#ff7f0e;" x="191.929721" xlink:href="#m515adb4317" y="503.997373"/>
     <use style="fill:#ff7f0e;stroke:#ff7f0e;" x="197.268508" xlink:href="#m515adb4317" y="503.997373"/>
     <use style="fill:#ff7f0e;stroke:#ff7f0e;" x="202.607296" xlink:href="#m515adb4317" y="503.996388"/>
     <use style="fill:#ff7f0e;stroke:#ff7f0e;" x="207.946084" xlink:href="#m515adb4317" y="503.996388"/>
     <use style="fill:#ff7f0e;stroke:#ff7f0e;" x="213.284871" xlink:href="#m515adb4317" y="503.996388"/>
     <use style="fill:#ff7f0e;stroke:#ff7f0e;" x="218.623659" xlink:href="#m515adb4317" y="503.996388"/>
     <use style="fill:#ff7f0e;stroke:#ff7f0e;" x="223.962447" xlink:href="#m515adb4317" y="503.996388"/>
     <use style="fill:#ff7f0e;stroke:#ff7f0e;" x="229.301234" xlink:href="#m515adb4317" y="503.996388"/>
     <use style="fill:#ff7f0e;stroke:#ff7f0e;" x="234.640022" xlink:href="#m515adb4317" y="503.996388"/>
     <use style="fill:#ff7f0e;stroke:#ff7f0e;" x="239.97881" xlink:href="#m515adb4317" y="503.996388"/>
     <use style="fill:#ff7f0e;stroke:#ff7f0e;" x="245.317597" xlink:href="#m515adb4317" y="503.99606"/>
     <use style="fill:#ff7f0e;stroke:#ff7f0e;" x="250.656385" xlink:href="#m515adb4317" y="503.99606"/>
     <use style="fill:#ff7f0e;stroke:#ff7f0e;" x="255.995173" xlink:href="#m515adb4317" y="503.995732"/>
     <use style="fill:#ff7f0e;stroke:#ff7f0e;" x="261.33396" xlink:href="#m515adb4317" y="503.995732"/>
     <use style="fill:#ff7f0e;stroke:#ff7f0e;" x="266.672748" xlink:href="#m515adb4317" y="503.995732"/>
     <use style="fill:#ff7f0e;stroke:#ff7f0e;" x="272.011536" xlink:href="#m515adb4317" y="503.995732"/>
     <use style="fill:#ff7f0e;stroke:#ff7f0e;" x="277.350323" xlink:href="#m515adb4317" y="503.995732"/>
     <use style="fill:#ff7f0e;stroke:#ff7f0e;" x="282.689111" xlink:href="#m515adb4317" y="503.995732"/>
     <use style="fill:#ff7f0e;stroke:#ff7f0e;" x="288.027899" xlink:href="#m515adb4317" y="503.995732"/>
     <use style="fill:#ff7f0e;stroke:#ff7f0e;" x="293.366686" xlink:href="#m515adb4317" y="503.995732"/>
     <use style="fill:#ff7f0e;stroke:#ff7f0e;" x="298.705474" xlink:href="#m515adb4317" y="503.995075"/>
     <use style="fill:#ff7f0e;stroke:#ff7f0e;" x="304.044261" xlink:href="#m515adb4317" y="503.995075"/>
     <use style="fill:#ff7f0e;stroke:#ff7f0e;" x="309.383049" xlink:href="#m515adb4317" y="503.995075"/>
     <use style="fill:#ff7f0e;stroke:#ff7f0e;" x="314.721837" xlink:href="#m515adb4317" y="503.983255"/>
     <use style="fill:#ff7f0e;stroke:#ff7f0e;" x="320.060624" xlink:href="#m515adb4317" y="503.983255"/>
     <use style="fill:#ff7f0e;stroke:#ff7f0e;" x="325.399412" xlink:href="#m515adb4317" y="503.981285"/>
     <use style="fill:#ff7f0e;stroke:#ff7f0e;" x="330.7382" xlink:href="#m515adb4317" y="503.980957"/>
     <use style="fill:#ff7f0e;stroke:#ff7f0e;" x="336.076987" xlink:href="#m515adb4317" y="503.9803"/>
     <use style="fill:#ff7f0e;stroke:#ff7f0e;" x="341.415775" xlink:href="#m515adb4317" y="503.977674"/>
     <use style="fill:#ff7f0e;stroke:#ff7f0e;" x="346.754563" xlink:href="#m515adb4317" y="503.975704"/>
     <use style="fill:#ff7f0e;stroke:#ff7f0e;" x="352.09335" xlink:href="#m515adb4317" y="503.967824"/>
     <use style="fill:#ff7f0e;stroke:#ff7f0e;" x="357.432138" xlink:href="#m515adb4317" y="503.961257"/>
     <use style="fill:#ff7f0e;stroke:#ff7f0e;" x="362.770926" xlink:href="#m515adb4317" y="503.951079"/>
     <use style="fill:#ff7f0e;stroke:#ff7f0e;" x="368.109713" xlink:href="#m515adb4317" y="503.928753"/>
     <use style="fill:#ff7f0e;stroke:#ff7f0e;" x="373.448501" xlink:href="#m515adb4317" y="503.913978"/>
     <use style="fill:#ff7f0e;stroke:#ff7f0e;" x="378.787289" xlink:href="#m515adb4317" y="503.868012"/>
     <use style="fill:#ff7f0e;stroke:#ff7f0e;" x="384.126076" xlink:href="#m515adb4317" y="503.829926"/>
     <use style="fill:#ff7f0e;stroke:#ff7f0e;" x="389.464864" xlink:href="#m515adb4317" y="503.808584"/>
     <use style="fill:#ff7f0e;stroke:#ff7f0e;" x="394.803651" xlink:href="#m515adb4317" y="503.685133"/>
     <use style="fill:#ff7f0e;stroke:#ff7f0e;" x="400.142439" xlink:href="#m515adb4317" y="503.579411"/>
     <use style="fill:#ff7f0e;stroke:#ff7f0e;" x="405.481227" xlink:href="#m515adb4317" y="503.45399"/>
     <use style="fill:#ff7f0e;stroke:#ff7f0e;" x="410.820014" xlink:href="#m515adb4317" y="503.284572"/>
     <use style="fill:#ff7f0e;stroke:#ff7f0e;" x="416.158802" xlink:href="#m515adb4317" y="503.104648"/>
     <use style="fill:#ff7f0e;stroke:#ff7f0e;" x="421.49759" xlink:href="#m515adb4317" y="502.851179"/>
     <use style="fill:#ff7f0e;stroke:#ff7f0e;" x="426.836377" xlink:href="#m515adb4317" y="502.479182"/>
     <use style="fill:#ff7f0e;stroke:#ff7f0e;" x="432.175165" xlink:href="#m515adb4317" y="501.891803"/>
     <use style="fill:#ff7f0e;stroke:#ff7f0e;" x="437.513953" xlink:href="#m515adb4317" y="501.444619"/>
     <use style="fill:#ff7f0e;stroke:#ff7f0e;" x="442.85274" xlink:href="#m515adb4317" y="499.509451"/>
     <use style="fill:#ff7f0e;stroke:#ff7f0e;" x="448.191528" xlink:href="#m515adb4317" y="497.728926"/>
     <use style="fill:#ff7f0e;stroke:#ff7f0e;" x="453.530316" xlink:href="#m515adb4317" y="495.631235"/>
     <use style="fill:#ff7f0e;stroke:#ff7f0e;" x="458.869103" xlink:href="#m515adb4317" y="493.074541"/>
     <use style="fill:#ff7f0e;stroke:#ff7f0e;" x="464.207891" xlink:href="#m515adb4317" y="489.603781"/>
     <use style="fill:#ff7f0e;stroke:#ff7f0e;" x="469.546679" xlink:href="#m515adb4317" y="486.355627"/>
     <use style="fill:#ff7f0e;stroke:#ff7f0e;" x="474.885466" xlink:href="#m515adb4317" y="482.403209"/>
     <use style="fill:#ff7f0e;stroke:#ff7f0e;" x="480.224254" xlink:href="#m515adb4317" y="476.474253"/>
     <use style="fill:#ff7f0e;stroke:#ff7f0e;" x="485.563042" xlink:href="#m515adb4317" y="470.623111"/>
     <use style="fill:#ff7f0e;stroke:#ff7f0e;" x="490.901829" xlink:href="#m515adb4317" y="464.115312"/>
     <use style="fill:#ff7f0e;stroke:#ff7f0e;" x="496.240617" xlink:href="#m515adb4317" y="457.743113"/>
     <use style="fill:#ff7f0e;stroke:#ff7f0e;" x="501.579404" xlink:href="#m515adb4317" y="450.874153"/>
     <use style="fill:#ff7f0e;stroke:#ff7f0e;" x="506.918192" xlink:href="#m515adb4317" y="442.217772"/>
     <use style="fill:#ff7f0e;stroke:#ff7f0e;" x="512.25698" xlink:href="#m515adb4317" y="433.943894"/>
     <use style="fill:#ff7f0e;stroke:#ff7f0e;" x="517.595767" xlink:href="#m515adb4317" y="424.067445"/>
     <use style="fill:#ff7f0e;stroke:#ff7f0e;" x="522.934555" xlink:href="#m515adb4317" y="412.765722"/>
    </g>
   </g>
   <g id="matplotlib.axis_1">
    <g id="xtick_1">
     <g id="line2d_1">
      <defs>
       <path d="M 0 0 
L 0 3.5 
" id="me190f50975" style="stroke:#000000;stroke-width:0.8;"/>
      </defs>
      <g>
       <use style="stroke:#000000;stroke-width:0.8;" x="138.541844" xlink:href="#me190f50975" y="504"/>
      </g>
     </g>
     <g id="text_1">
      <!-- 0 -->
      <defs>
       <path d="M 31.78125 66.40625 
Q 24.171875 66.40625 20.328125 58.90625 
Q 16.5 51.421875 16.5 36.375 
Q 16.5 21.390625 20.328125 13.890625 
Q 24.171875 6.390625 31.78125 6.390625 
Q 39.453125 6.390625 43.28125 13.890625 
Q 47.125 21.390625 47.125 36.375 
Q 47.125 51.421875 43.28125 58.90625 
Q 39.453125 66.40625 31.78125 66.40625 
z
M 31.78125 74.21875 
Q 44.046875 74.21875 50.515625 64.515625 
Q 56.984375 54.828125 56.984375 36.375 
Q 56.984375 17.96875 50.515625 8.265625 
Q 44.046875 -1.421875 31.78125 -1.421875 
Q 19.53125 -1.421875 13.0625 8.265625 
Q 6.59375 17.96875 6.59375 36.375 
Q 6.59375 54.828125 13.0625 64.515625 
Q 19.53125 74.21875 31.78125 74.21875 
z
" id="DejaVuSans-48"/>
      </defs>
      <g transform="translate(134.088094 521.637812)scale(0.14 -0.14)">
       <use xlink:href="#DejaVuSans-48"/>
      </g>
     </g>
    </g>
    <g id="xtick_2">
     <g id="line2d_2">
      <g>
       <use style="stroke:#000000;stroke-width:0.8;" x="245.317597" xlink:href="#me190f50975" y="504"/>
      </g>
     </g>
     <g id="text_2">
      <!-- 20 -->
      <defs>
       <path d="M 19.1875 8.296875 
L 53.609375 8.296875 
L 53.609375 0 
L 7.328125 0 
L 7.328125 8.296875 
Q 12.9375 14.109375 22.625 23.890625 
Q 32.328125 33.6875 34.8125 36.53125 
Q 39.546875 41.84375 41.421875 45.53125 
Q 43.3125 49.21875 43.3125 52.78125 
Q 43.3125 58.59375 39.234375 62.25 
Q 35.15625 65.921875 28.609375 65.921875 
Q 23.96875 65.921875 18.8125 64.3125 
Q 13.671875 62.703125 7.8125 59.421875 
L 7.8125 69.390625 
Q 13.765625 71.78125 18.9375 73 
Q 24.125 74.21875 28.421875 74.21875 
Q 39.75 74.21875 46.484375 68.546875 
Q 53.21875 62.890625 53.21875 53.421875 
Q 53.21875 48.921875 51.53125 44.890625 
Q 49.859375 40.875 45.40625 35.40625 
Q 44.1875 33.984375 37.640625 27.21875 
Q 31.109375 20.453125 19.1875 8.296875 
z
" id="DejaVuSans-50"/>
      </defs>
      <g transform="translate(236.410097 521.637812)scale(0.14 -0.14)">
       <use xlink:href="#DejaVuSans-50"/>
       <use x="63.623047" xlink:href="#DejaVuSans-48"/>
      </g>
     </g>
    </g>
    <g id="xtick_3">
     <g id="line2d_3">
      <g>
       <use style="stroke:#000000;stroke-width:0.8;" x="352.09335" xlink:href="#me190f50975" y="504"/>
      </g>
     </g>
     <g id="text_3">
      <!-- 40 -->
      <defs>
       <path d="M 37.796875 64.3125 
L 12.890625 25.390625 
L 37.796875 25.390625 
z
M 35.203125 72.90625 
L 47.609375 72.90625 
L 47.609375 25.390625 
L 58.015625 25.390625 
L 58.015625 17.1875 
L 47.609375 17.1875 
L 47.609375 0 
L 37.796875 0 
L 37.796875 17.1875 
L 4.890625 17.1875 
L 4.890625 26.703125 
z
" id="DejaVuSans-52"/>
      </defs>
      <g transform="translate(343.18585 521.637812)scale(0.14 -0.14)">
       <use xlink:href="#DejaVuSans-52"/>
       <use x="63.623047" xlink:href="#DejaVuSans-48"/>
      </g>
     </g>
    </g>
    <g id="xtick_4">
     <g id="line2d_4">
      <g>
       <use style="stroke:#000000;stroke-width:0.8;" x="458.869103" xlink:href="#me190f50975" y="504"/>
      </g>
     </g>
     <g id="text_4">
      <!-- 60 -->
      <defs>
       <path d="M 33.015625 40.375 
Q 26.375 40.375 22.484375 35.828125 
Q 18.609375 31.296875 18.609375 23.390625 
Q 18.609375 15.53125 22.484375 10.953125 
Q 26.375 6.390625 33.015625 6.390625 
Q 39.65625 6.390625 43.53125 10.953125 
Q 47.40625 15.53125 47.40625 23.390625 
Q 47.40625 31.296875 43.53125 35.828125 
Q 39.65625 40.375 33.015625 40.375 
z
M 52.59375 71.296875 
L 52.59375 62.3125 
Q 48.875 64.0625 45.09375 64.984375 
Q 41.3125 65.921875 37.59375 65.921875 
Q 27.828125 65.921875 22.671875 59.328125 
Q 17.53125 52.734375 16.796875 39.40625 
Q 19.671875 43.65625 24.015625 45.921875 
Q 28.375 48.1875 33.59375 48.1875 
Q 44.578125 48.1875 50.953125 41.515625 
Q 57.328125 34.859375 57.328125 23.390625 
Q 57.328125 12.15625 50.6875 5.359375 
Q 44.046875 -1.421875 33.015625 -1.421875 
Q 20.359375 -1.421875 13.671875 8.265625 
Q 6.984375 17.96875 6.984375 36.375 
Q 6.984375 53.65625 15.1875 63.9375 
Q 23.390625 74.21875 37.203125 74.21875 
Q 40.921875 74.21875 44.703125 73.484375 
Q 48.484375 72.75 52.59375 71.296875 
z
" id="DejaVuSans-54"/>
      </defs>
      <g transform="translate(449.961603 521.637812)scale(0.14 -0.14)">
       <use xlink:href="#DejaVuSans-54"/>
       <use x="63.623047" xlink:href="#DejaVuSans-48"/>
      </g>
     </g>
    </g>
    <g id="xtick_5">
     <g id="line2d_5">
      <g>
       <use style="stroke:#000000;stroke-width:0.8;" x="565.644856" xlink:href="#me190f50975" y="504"/>
      </g>
     </g>
     <g id="text_5">
      <!-- 80 -->
      <defs>
       <path d="M 31.78125 34.625 
Q 24.75 34.625 20.71875 30.859375 
Q 16.703125 27.09375 16.703125 20.515625 
Q 16.703125 13.921875 20.71875 10.15625 
Q 24.75 6.390625 31.78125 6.390625 
Q 38.8125 6.390625 42.859375 10.171875 
Q 46.921875 13.96875 46.921875 20.515625 
Q 46.921875 27.09375 42.890625 30.859375 
Q 38.875 34.625 31.78125 34.625 
z
M 21.921875 38.8125 
Q 15.578125 40.375 12.03125 44.71875 
Q 8.5 49.078125 8.5 55.328125 
Q 8.5 64.0625 14.71875 69.140625 
Q 20.953125 74.21875 31.78125 74.21875 
Q 42.671875 74.21875 48.875 69.140625 
Q 55.078125 64.0625 55.078125 55.328125 
Q 55.078125 49.078125 51.53125 44.71875 
Q 48 40.375 41.703125 38.8125 
Q 48.828125 37.15625 52.796875 32.3125 
Q 56.78125 27.484375 56.78125 20.515625 
Q 56.78125 9.90625 50.3125 4.234375 
Q 43.84375 -1.421875 31.78125 -1.421875 
Q 19.734375 -1.421875 13.25 4.234375 
Q 6.78125 9.90625 6.78125 20.515625 
Q 6.78125 27.484375 10.78125 32.3125 
Q 14.796875 37.15625 21.921875 38.8125 
z
M 18.3125 54.390625 
Q 18.3125 48.734375 21.84375 45.5625 
Q 25.390625 42.390625 31.78125 42.390625 
Q 38.140625 42.390625 41.71875 45.5625 
Q 45.3125 48.734375 45.3125 54.390625 
Q 45.3125 60.0625 41.71875 63.234375 
Q 38.140625 66.40625 31.78125 66.40625 
Q 25.390625 66.40625 21.84375 63.234375 
Q 18.3125 60.0625 18.3125 54.390625 
z
" id="DejaVuSans-56"/>
      </defs>
      <g transform="translate(556.737356 521.637812)scale(0.14 -0.14)">
       <use xlink:href="#DejaVuSans-56"/>
       <use x="63.623047" xlink:href="#DejaVuSans-48"/>
      </g>
     </g>
    </g>
    <g id="xtick_6">
     <g id="line2d_6">
      <g>
       <use style="stroke:#000000;stroke-width:0.8;" x="672.420609" xlink:href="#me190f50975" y="504"/>
      </g>
     </g>
     <g id="text_6">
      <!-- 100 -->
      <defs>
       <path d="M 12.40625 8.296875 
L 28.515625 8.296875 
L 28.515625 63.921875 
L 10.984375 60.40625 
L 10.984375 69.390625 
L 28.421875 72.90625 
L 38.28125 72.90625 
L 38.28125 8.296875 
L 54.390625 8.296875 
L 54.390625 0 
L 12.40625 0 
z
" id="DejaVuSans-49"/>
      </defs>
      <g transform="translate(659.059359 521.637812)scale(0.14 -0.14)">
       <use xlink:href="#DejaVuSans-49"/>
       <use x="63.623047" xlink:href="#DejaVuSans-48"/>
       <use x="127.246094" xlink:href="#DejaVuSans-48"/>
      </g>
     </g>
    </g>
    <g id="text_7">
     <!-- Days since 22 January 2020 -->
     <defs>
      <path d="M 19.671875 64.796875 
L 19.671875 8.109375 
L 31.59375 8.109375 
Q 46.6875 8.109375 53.6875 14.9375 
Q 60.6875 21.78125 60.6875 36.53125 
Q 60.6875 51.171875 53.6875 57.984375 
Q 46.6875 64.796875 31.59375 64.796875 
z
M 9.8125 72.90625 
L 30.078125 72.90625 
Q 51.265625 72.90625 61.171875 64.09375 
Q 71.09375 55.28125 71.09375 36.53125 
Q 71.09375 17.671875 61.125 8.828125 
Q 51.171875 0 30.078125 0 
L 9.8125 0 
z
" id="DejaVuSans-68"/>
      <path d="M 34.28125 27.484375 
Q 23.390625 27.484375 19.1875 25 
Q 14.984375 22.515625 14.984375 16.5 
Q 14.984375 11.71875 18.140625 8.90625 
Q 21.296875 6.109375 26.703125 6.109375 
Q 34.1875 6.109375 38.703125 11.40625 
Q 43.21875 16.703125 43.21875 25.484375 
L 43.21875 27.484375 
z
M 52.203125 31.203125 
L 52.203125 0 
L 43.21875 0 
L 43.21875 8.296875 
Q 40.140625 3.328125 35.546875 0.953125 
Q 30.953125 -1.421875 24.3125 -1.421875 
Q 15.921875 -1.421875 10.953125 3.296875 
Q 6 8.015625 6 15.921875 
Q 6 25.140625 12.171875 29.828125 
Q 18.359375 34.515625 30.609375 34.515625 
L 43.21875 34.515625 
L 43.21875 35.40625 
Q 43.21875 41.609375 39.140625 45 
Q 35.0625 48.390625 27.6875 48.390625 
Q 23 48.390625 18.546875 47.265625 
Q 14.109375 46.140625 10.015625 43.890625 
L 10.015625 52.203125 
Q 14.9375 54.109375 19.578125 55.046875 
Q 24.21875 56 28.609375 56 
Q 40.484375 56 46.34375 49.84375 
Q 52.203125 43.703125 52.203125 31.203125 
z
" id="DejaVuSans-97"/>
      <path d="M 32.171875 -5.078125 
Q 28.375 -14.84375 24.75 -17.8125 
Q 21.140625 -20.796875 15.09375 -20.796875 
L 7.90625 -20.796875 
L 7.90625 -13.28125 
L 13.1875 -13.28125 
Q 16.890625 -13.28125 18.9375 -11.515625 
Q 21 -9.765625 23.484375 -3.21875 
L 25.09375 0.875 
L 2.984375 54.6875 
L 12.5 54.6875 
L 29.59375 11.921875 
L 46.6875 54.6875 
L 56.203125 54.6875 
z
" id="DejaVuSans-121"/>
      <path d="M 44.28125 53.078125 
L 44.28125 44.578125 
Q 40.484375 46.53125 36.375 47.5 
Q 32.28125 48.484375 27.875 48.484375 
Q 21.1875 48.484375 17.84375 46.4375 
Q 14.5 44.390625 14.5 40.28125 
Q 14.5 37.15625 16.890625 35.375 
Q 19.28125 33.59375 26.515625 31.984375 
L 29.59375 31.296875 
Q 39.15625 29.25 43.1875 25.515625 
Q 47.21875 21.78125 47.21875 15.09375 
Q 47.21875 7.46875 41.1875 3.015625 
Q 35.15625 -1.421875 24.609375 -1.421875 
Q 20.21875 -1.421875 15.453125 -0.5625 
Q 10.6875 0.296875 5.421875 2 
L 5.421875 11.28125 
Q 10.40625 8.6875 15.234375 7.390625 
Q 20.0625 6.109375 24.8125 6.109375 
Q 31.15625 6.109375 34.5625 8.28125 
Q 37.984375 10.453125 37.984375 14.40625 
Q 37.984375 18.0625 35.515625 20.015625 
Q 33.0625 21.96875 24.703125 23.78125 
L 21.578125 24.515625 
Q 13.234375 26.265625 9.515625 29.90625 
Q 5.8125 33.546875 5.8125 39.890625 
Q 5.8125 47.609375 11.28125 51.796875 
Q 16.75 56 26.8125 56 
Q 31.78125 56 36.171875 55.265625 
Q 40.578125 54.546875 44.28125 53.078125 
z
" id="DejaVuSans-115"/>
      <path id="DejaVuSans-32"/>
      <path d="M 9.421875 54.6875 
L 18.40625 54.6875 
L 18.40625 0 
L 9.421875 0 
z
M 9.421875 75.984375 
L 18.40625 75.984375 
L 18.40625 64.59375 
L 9.421875 64.59375 
z
" id="DejaVuSans-105"/>
      <path d="M 54.890625 33.015625 
L 54.890625 0 
L 45.90625 0 
L 45.90625 32.71875 
Q 45.90625 40.484375 42.875 44.328125 
Q 39.84375 48.1875 33.796875 48.1875 
Q 26.515625 48.1875 22.3125 43.546875 
Q 18.109375 38.921875 18.109375 30.90625 
L 18.109375 0 
L 9.078125 0 
L 9.078125 54.6875 
L 18.109375 54.6875 
L 18.109375 46.1875 
Q 21.34375 51.125 25.703125 53.5625 
Q 30.078125 56 35.796875 56 
Q 45.21875 56 50.046875 50.171875 
Q 54.890625 44.34375 54.890625 33.015625 
z
" id="DejaVuSans-110"/>
      <path d="M 48.78125 52.59375 
L 48.78125 44.1875 
Q 44.96875 46.296875 41.140625 47.34375 
Q 37.3125 48.390625 33.40625 48.390625 
Q 24.65625 48.390625 19.8125 42.84375 
Q 14.984375 37.3125 14.984375 27.296875 
Q 14.984375 17.28125 19.8125 11.734375 
Q 24.65625 6.203125 33.40625 6.203125 
Q 37.3125 6.203125 41.140625 7.25 
Q 44.96875 8.296875 48.78125 10.40625 
L 48.78125 2.09375 
Q 45.015625 0.34375 40.984375 -0.53125 
Q 36.96875 -1.421875 32.421875 -1.421875 
Q 20.0625 -1.421875 12.78125 6.34375 
Q 5.515625 14.109375 5.515625 27.296875 
Q 5.515625 40.671875 12.859375 48.328125 
Q 20.21875 56 33.015625 56 
Q 37.15625 56 41.109375 55.140625 
Q 45.0625 54.296875 48.78125 52.59375 
z
" id="DejaVuSans-99"/>
      <path d="M 56.203125 29.59375 
L 56.203125 25.203125 
L 14.890625 25.203125 
Q 15.484375 15.921875 20.484375 11.0625 
Q 25.484375 6.203125 34.421875 6.203125 
Q 39.59375 6.203125 44.453125 7.46875 
Q 49.3125 8.734375 54.109375 11.28125 
L 54.109375 2.78125 
Q 49.265625 0.734375 44.1875 -0.34375 
Q 39.109375 -1.421875 33.890625 -1.421875 
Q 20.796875 -1.421875 13.15625 6.1875 
Q 5.515625 13.8125 5.515625 26.8125 
Q 5.515625 40.234375 12.765625 48.109375 
Q 20.015625 56 32.328125 56 
Q 43.359375 56 49.78125 48.890625 
Q 56.203125 41.796875 56.203125 29.59375 
z
M 47.21875 32.234375 
Q 47.125 39.59375 43.09375 43.984375 
Q 39.0625 48.390625 32.421875 48.390625 
Q 24.90625 48.390625 20.390625 44.140625 
Q 15.875 39.890625 15.1875 32.171875 
z
" id="DejaVuSans-101"/>
      <path d="M 9.8125 72.90625 
L 19.671875 72.90625 
L 19.671875 5.078125 
Q 19.671875 -8.109375 14.671875 -14.0625 
Q 9.671875 -20.015625 -1.421875 -20.015625 
L -5.171875 -20.015625 
L -5.171875 -11.71875 
L -2.09375 -11.71875 
Q 4.4375 -11.71875 7.125 -8.046875 
Q 9.8125 -4.390625 9.8125 5.078125 
z
" id="DejaVuSans-74"/>
      <path d="M 8.5 21.578125 
L 8.5 54.6875 
L 17.484375 54.6875 
L 17.484375 21.921875 
Q 17.484375 14.15625 20.5 10.265625 
Q 23.53125 6.390625 29.59375 6.390625 
Q 36.859375 6.390625 41.078125 11.03125 
Q 45.3125 15.671875 45.3125 23.6875 
L 45.3125 54.6875 
L 54.296875 54.6875 
L 54.296875 0 
L 45.3125 0 
L 45.3125 8.40625 
Q 42.046875 3.421875 37.71875 1 
Q 33.40625 -1.421875 27.6875 -1.421875 
Q 18.265625 -1.421875 13.375 4.4375 
Q 8.5 10.296875 8.5 21.578125 
z
M 31.109375 56 
z
" id="DejaVuSans-117"/>
      <path d="M 41.109375 46.296875 
Q 39.59375 47.171875 37.8125 47.578125 
Q 36.03125 48 33.890625 48 
Q 26.265625 48 22.1875 43.046875 
Q 18.109375 38.09375 18.109375 28.8125 
L 18.109375 0 
L 9.078125 0 
L 9.078125 54.6875 
L 18.109375 54.6875 
L 18.109375 46.1875 
Q 20.953125 51.171875 25.484375 53.578125 
Q 30.03125 56 36.53125 56 
Q 37.453125 56 38.578125 55.875 
Q 39.703125 55.765625 41.0625 55.515625 
z
" id="DejaVuSans-114"/>
     </defs>
     <g transform="translate(344.988125 539.187188)scale(0.14 -0.14)">
      <use xlink:href="#DejaVuSans-68"/>
      <use x="77.001953" xlink:href="#DejaVuSans-97"/>
      <use x="138.28125" xlink:href="#DejaVuSans-121"/>
      <use x="197.460938" xlink:href="#DejaVuSans-115"/>
      <use x="249.560547" xlink:href="#DejaVuSans-32"/>
      <use x="281.347656" xlink:href="#DejaVuSans-115"/>
      <use x="333.447266" xlink:href="#DejaVuSans-105"/>
      <use x="361.230469" xlink:href="#DejaVuSans-110"/>
      <use x="424.609375" xlink:href="#DejaVuSans-99"/>
      <use x="479.589844" xlink:href="#DejaVuSans-101"/>
      <use x="541.113281" xlink:href="#DejaVuSans-32"/>
      <use x="572.900391" xlink:href="#DejaVuSans-50"/>
      <use x="636.523438" xlink:href="#DejaVuSans-50"/>
      <use x="700.146484" xlink:href="#DejaVuSans-32"/>
      <use x="731.933594" xlink:href="#DejaVuSans-74"/>
      <use x="761.425781" xlink:href="#DejaVuSans-97"/>
      <use x="822.705078" xlink:href="#DejaVuSans-110"/>
      <use x="886.083984" xlink:href="#DejaVuSans-117"/>
      <use x="949.462891" xlink:href="#DejaVuSans-97"/>
      <use x="1010.742188" xlink:href="#DejaVuSans-114"/>
      <use x="1051.855469" xlink:href="#DejaVuSans-121"/>
      <use x="1111.035156" xlink:href="#DejaVuSans-32"/>
      <use x="1142.822266" xlink:href="#DejaVuSans-50"/>
      <use x="1206.445312" xlink:href="#DejaVuSans-48"/>
      <use x="1270.068359" xlink:href="#DejaVuSans-50"/>
      <use x="1333.691406" xlink:href="#DejaVuSans-48"/>
     </g>
    </g>
   </g>
   <g id="matplotlib.axis_2">
    <g id="ytick_1">
     <g id="line2d_7">
      <defs>
       <path d="M 0 0 
L -3.5 0 
" id="m0ed55fbf9a" style="stroke:#000000;stroke-width:0.8;"/>
      </defs>
      <g>
       <use style="stroke:#000000;stroke-width:0.8;" x="108" xlink:href="#m0ed55fbf9a" y="504"/>
      </g>
     </g>
     <g id="text_8">
      <!-- 0 -->
      <g transform="translate(92.0925 509.318906)scale(0.14 -0.14)">
       <use xlink:href="#DejaVuSans-48"/>
      </g>
     </g>
    </g>
    <g id="ytick_2">
     <g id="line2d_8">
      <g>
       <use style="stroke:#000000;stroke-width:0.8;" x="108" xlink:href="#m0ed55fbf9a" y="438.334303"/>
      </g>
     </g>
     <g id="text_9">
      <!-- 200000 -->
      <g transform="translate(47.555 443.653209)scale(0.14 -0.14)">
       <use xlink:href="#DejaVuSans-50"/>
       <use x="63.623047" xlink:href="#DejaVuSans-48"/>
       <use x="127.246094" xlink:href="#DejaVuSans-48"/>
       <use x="190.869141" xlink:href="#DejaVuSans-48"/>
       <use x="254.492188" xlink:href="#DejaVuSans-48"/>
       <use x="318.115234" xlink:href="#DejaVuSans-48"/>
      </g>
     </g>
    </g>
    <g id="ytick_3">
     <g id="line2d_9">
      <g>
       <use style="stroke:#000000;stroke-width:0.8;" x="108" xlink:href="#m0ed55fbf9a" y="372.668606"/>
      </g>
     </g>
     <g id="text_10">
      <!-- 400000 -->
      <g transform="translate(47.555 377.987512)scale(0.14 -0.14)">
       <use xlink:href="#DejaVuSans-52"/>
       <use x="63.623047" xlink:href="#DejaVuSans-48"/>
       <use x="127.246094" xlink:href="#DejaVuSans-48"/>
       <use x="190.869141" xlink:href="#DejaVuSans-48"/>
       <use x="254.492188" xlink:href="#DejaVuSans-48"/>
       <use x="318.115234" xlink:href="#DejaVuSans-48"/>
      </g>
     </g>
    </g>
    <g id="ytick_4">
     <g id="line2d_10">
      <g>
       <use style="stroke:#000000;stroke-width:0.8;" x="108" xlink:href="#m0ed55fbf9a" y="307.002908"/>
      </g>
     </g>
     <g id="text_11">
      <!-- 600000 -->
      <g transform="translate(47.555 312.321815)scale(0.14 -0.14)">
       <use xlink:href="#DejaVuSans-54"/>
       <use x="63.623047" xlink:href="#DejaVuSans-48"/>
       <use x="127.246094" xlink:href="#DejaVuSans-48"/>
       <use x="190.869141" xlink:href="#DejaVuSans-48"/>
       <use x="254.492188" xlink:href="#DejaVuSans-48"/>
       <use x="318.115234" xlink:href="#DejaVuSans-48"/>
      </g>
     </g>
    </g>
    <g id="ytick_5">
     <g id="line2d_11">
      <g>
       <use style="stroke:#000000;stroke-width:0.8;" x="108" xlink:href="#m0ed55fbf9a" y="241.337211"/>
      </g>
     </g>
     <g id="text_12">
      <!-- 800000 -->
      <g transform="translate(47.555 246.656117)scale(0.14 -0.14)">
       <use xlink:href="#DejaVuSans-56"/>
       <use x="63.623047" xlink:href="#DejaVuSans-48"/>
       <use x="127.246094" xlink:href="#DejaVuSans-48"/>
       <use x="190.869141" xlink:href="#DejaVuSans-48"/>
       <use x="254.492188" xlink:href="#DejaVuSans-48"/>
       <use x="318.115234" xlink:href="#DejaVuSans-48"/>
      </g>
     </g>
    </g>
    <g id="ytick_6">
     <g id="line2d_12">
      <g>
       <use style="stroke:#000000;stroke-width:0.8;" x="108" xlink:href="#m0ed55fbf9a" y="175.671514"/>
      </g>
     </g>
     <g id="text_13">
      <!-- 1000000 -->
      <g transform="translate(38.6475 180.99042)scale(0.14 -0.14)">
       <use xlink:href="#DejaVuSans-49"/>
       <use x="63.623047" xlink:href="#DejaVuSans-48"/>
       <use x="127.246094" xlink:href="#DejaVuSans-48"/>
       <use x="190.869141" xlink:href="#DejaVuSans-48"/>
       <use x="254.492188" xlink:href="#DejaVuSans-48"/>
       <use x="318.115234" xlink:href="#DejaVuSans-48"/>
       <use x="381.738281" xlink:href="#DejaVuSans-48"/>
      </g>
     </g>
    </g>
    <g id="ytick_7">
     <g id="line2d_13">
      <g>
       <use style="stroke:#000000;stroke-width:0.8;" x="108" xlink:href="#m0ed55fbf9a" y="110.005817"/>
      </g>
     </g>
     <g id="text_14">
      <!-- 1200000 -->
      <g transform="translate(38.6475 115.324723)scale(0.14 -0.14)">
       <use xlink:href="#DejaVuSans-49"/>
       <use x="63.623047" xlink:href="#DejaVuSans-50"/>
       <use x="127.246094" xlink:href="#DejaVuSans-48"/>
       <use x="190.869141" xlink:href="#DejaVuSans-48"/>
       <use x="254.492188" xlink:href="#DejaVuSans-48"/>
       <use x="318.115234" xlink:href="#DejaVuSans-48"/>
       <use x="381.738281" xlink:href="#DejaVuSans-48"/>
      </g>
     </g>
    </g>
    <g id="text_15">
     <!-- Total # of Confirmed Cases -->
     <defs>
      <path d="M -0.296875 72.90625 
L 61.375 72.90625 
L 61.375 64.59375 
L 35.5 64.59375 
L 35.5 0 
L 25.59375 0 
L 25.59375 64.59375 
L -0.296875 64.59375 
z
" id="DejaVuSans-84"/>
      <path d="M 30.609375 48.390625 
Q 23.390625 48.390625 19.1875 42.75 
Q 14.984375 37.109375 14.984375 27.296875 
Q 14.984375 17.484375 19.15625 11.84375 
Q 23.34375 6.203125 30.609375 6.203125 
Q 37.796875 6.203125 41.984375 11.859375 
Q 46.1875 17.53125 46.1875 27.296875 
Q 46.1875 37.015625 41.984375 42.703125 
Q 37.796875 48.390625 30.609375 48.390625 
z
M 30.609375 56 
Q 42.328125 56 49.015625 48.375 
Q 55.71875 40.765625 55.71875 27.296875 
Q 55.71875 13.875 49.015625 6.21875 
Q 42.328125 -1.421875 30.609375 -1.421875 
Q 18.84375 -1.421875 12.171875 6.21875 
Q 5.515625 13.875 5.515625 27.296875 
Q 5.515625 40.765625 12.171875 48.375 
Q 18.84375 56 30.609375 56 
z
" id="DejaVuSans-111"/>
      <path d="M 18.3125 70.21875 
L 18.3125 54.6875 
L 36.8125 54.6875 
L 36.8125 47.703125 
L 18.3125 47.703125 
L 18.3125 18.015625 
Q 18.3125 11.328125 20.140625 9.421875 
Q 21.96875 7.515625 27.59375 7.515625 
L 36.8125 7.515625 
L 36.8125 0 
L 27.59375 0 
Q 17.1875 0 13.234375 3.875 
Q 9.28125 7.765625 9.28125 18.015625 
L 9.28125 47.703125 
L 2.6875 47.703125 
L 2.6875 54.6875 
L 9.28125 54.6875 
L 9.28125 70.21875 
z
" id="DejaVuSans-116"/>
      <path d="M 9.421875 75.984375 
L 18.40625 75.984375 
L 18.40625 0 
L 9.421875 0 
z
" id="DejaVuSans-108"/>
      <path d="M 51.125 44 
L 36.921875 44 
L 32.8125 27.6875 
L 47.125 27.6875 
z
M 43.796875 71.78125 
L 38.71875 51.515625 
L 52.984375 51.515625 
L 58.109375 71.78125 
L 65.921875 71.78125 
L 60.890625 51.515625 
L 76.125 51.515625 
L 76.125 44 
L 58.984375 44 
L 54.984375 27.6875 
L 70.515625 27.6875 
L 70.515625 20.21875 
L 53.078125 20.21875 
L 48 0 
L 40.1875 0 
L 45.21875 20.21875 
L 30.90625 20.21875 
L 25.875 0 
L 18.015625 0 
L 23.09375 20.21875 
L 7.71875 20.21875 
L 7.71875 27.6875 
L 24.90625 27.6875 
L 29 44 
L 13.28125 44 
L 13.28125 51.515625 
L 30.90625 51.515625 
L 35.890625 71.78125 
z
" id="DejaVuSans-35"/>
      <path d="M 37.109375 75.984375 
L 37.109375 68.5 
L 28.515625 68.5 
Q 23.6875 68.5 21.796875 66.546875 
Q 19.921875 64.59375 19.921875 59.515625 
L 19.921875 54.6875 
L 34.71875 54.6875 
L 34.71875 47.703125 
L 19.921875 47.703125 
L 19.921875 0 
L 10.890625 0 
L 10.890625 47.703125 
L 2.296875 47.703125 
L 2.296875 54.6875 
L 10.890625 54.6875 
L 10.890625 58.5 
Q 10.890625 67.625 15.140625 71.796875 
Q 19.390625 75.984375 28.609375 75.984375 
z
" id="DejaVuSans-102"/>
      <path d="M 64.40625 67.28125 
L 64.40625 56.890625 
Q 59.421875 61.53125 53.78125 63.8125 
Q 48.140625 66.109375 41.796875 66.109375 
Q 29.296875 66.109375 22.65625 58.46875 
Q 16.015625 50.828125 16.015625 36.375 
Q 16.015625 21.96875 22.65625 14.328125 
Q 29.296875 6.6875 41.796875 6.6875 
Q 48.140625 6.6875 53.78125 8.984375 
Q 59.421875 11.28125 64.40625 15.921875 
L 64.40625 5.609375 
Q 59.234375 2.09375 53.4375 0.328125 
Q 47.65625 -1.421875 41.21875 -1.421875 
Q 24.65625 -1.421875 15.125 8.703125 
Q 5.609375 18.84375 5.609375 36.375 
Q 5.609375 53.953125 15.125 64.078125 
Q 24.65625 74.21875 41.21875 74.21875 
Q 47.75 74.21875 53.53125 72.484375 
Q 59.328125 70.75 64.40625 67.28125 
z
" id="DejaVuSans-67"/>
      <path d="M 52 44.1875 
Q 55.375 50.25 60.0625 53.125 
Q 64.75 56 71.09375 56 
Q 79.640625 56 84.28125 50.015625 
Q 88.921875 44.046875 88.921875 33.015625 
L 88.921875 0 
L 79.890625 0 
L 79.890625 32.71875 
Q 79.890625 40.578125 77.09375 44.375 
Q 74.3125 48.1875 68.609375 48.1875 
Q 61.625 48.1875 57.5625 43.546875 
Q 53.515625 38.921875 53.515625 30.90625 
L 53.515625 0 
L 44.484375 0 
L 44.484375 32.71875 
Q 44.484375 40.625 41.703125 44.40625 
Q 38.921875 48.1875 33.109375 48.1875 
Q 26.21875 48.1875 22.15625 43.53125 
Q 18.109375 38.875 18.109375 30.90625 
L 18.109375 0 
L 9.078125 0 
L 9.078125 54.6875 
L 18.109375 54.6875 
L 18.109375 46.1875 
Q 21.1875 51.21875 25.484375 53.609375 
Q 29.78125 56 35.6875 56 
Q 41.65625 56 45.828125 52.96875 
Q 50 49.953125 52 44.1875 
z
" id="DejaVuSans-109"/>
      <path d="M 45.40625 46.390625 
L 45.40625 75.984375 
L 54.390625 75.984375 
L 54.390625 0 
L 45.40625 0 
L 45.40625 8.203125 
Q 42.578125 3.328125 38.25 0.953125 
Q 33.9375 -1.421875 27.875 -1.421875 
Q 17.96875 -1.421875 11.734375 6.484375 
Q 5.515625 14.40625 5.515625 27.296875 
Q 5.515625 40.1875 11.734375 48.09375 
Q 17.96875 56 27.875 56 
Q 33.9375 56 38.25 53.625 
Q 42.578125 51.265625 45.40625 46.390625 
z
M 14.796875 27.296875 
Q 14.796875 17.390625 18.875 11.75 
Q 22.953125 6.109375 30.078125 6.109375 
Q 37.203125 6.109375 41.296875 11.75 
Q 45.40625 17.390625 45.40625 27.296875 
Q 45.40625 37.203125 41.296875 42.84375 
Q 37.203125 48.484375 30.078125 48.484375 
Q 22.953125 48.484375 18.875 42.84375 
Q 14.796875 37.203125 14.796875 27.296875 
z
" id="DejaVuSans-100"/>
     </defs>
     <g transform="translate(31.735937 382.830781)rotate(-90)scale(0.14 -0.14)">
      <use xlink:href="#DejaVuSans-84"/>
      <use x="60.818359" xlink:href="#DejaVuSans-111"/>
      <use x="122" xlink:href="#DejaVuSans-116"/>
      <use x="161.208984" xlink:href="#DejaVuSans-97"/>
      <use x="222.488281" xlink:href="#DejaVuSans-108"/>
      <use x="250.271484" xlink:href="#DejaVuSans-32"/>
      <use x="282.058594" xlink:href="#DejaVuSans-35"/>
      <use x="365.847656" xlink:href="#DejaVuSans-32"/>
      <use x="397.634766" xlink:href="#DejaVuSans-111"/>
      <use x="458.816406" xlink:href="#DejaVuSans-102"/>
      <use x="494.021484" xlink:href="#DejaVuSans-32"/>
      <use x="525.808594" xlink:href="#DejaVuSans-67"/>
      <use x="595.632812" xlink:href="#DejaVuSans-111"/>
      <use x="656.814453" xlink:href="#DejaVuSans-110"/>
      <use x="720.193359" xlink:href="#DejaVuSans-102"/>
      <use x="755.398438" xlink:href="#DejaVuSans-105"/>
      <use x="783.181641" xlink:href="#DejaVuSans-114"/>
      <use x="824.279297" xlink:href="#DejaVuSans-109"/>
      <use x="921.691406" xlink:href="#DejaVuSans-101"/>
      <use x="983.214844" xlink:href="#DejaVuSans-100"/>
      <use x="1046.691406" xlink:href="#DejaVuSans-32"/>
      <use x="1078.478516" xlink:href="#DejaVuSans-67"/>
      <use x="1148.302734" xlink:href="#DejaVuSans-97"/>
      <use x="1209.582031" xlink:href="#DejaVuSans-115"/>
      <use x="1261.681641" xlink:href="#DejaVuSans-101"/>
      <use x="1323.205078" xlink:href="#DejaVuSans-115"/>
     </g>
    </g>
   </g>
   <g id="line2d_14">
    <path clip-path="url(#p2d9774f878)" d="M 138.541844 503.999806 
L 143.880632 503.999767 
L 149.21942 503.999719 
L 154.558207 503.999662 
L 159.896995 503.999593 
L 165.235783 503.99951 
L 170.57457 503.99941 
L 175.913358 503.99929 
L 181.252146 503.999146 
L 186.590933 503.998972 
L 191.929721 503.998762 
L 197.268508 503.99851 
L 202.607296 503.998207 
L 207.946084 503.997841 
L 213.284871 503.997402 
L 218.623659 503.996873 
L 223.962447 503.996236 
L 229.301234 503.995469 
L 234.640022 503.994546 
L 239.97881 503.993435 
L 245.317597 503.992098 
L 250.656385 503.990489 
L 255.995173 503.988551 
L 261.33396 503.98622 
L 266.672748 503.983413 
L 272.011536 503.980035 
L 277.350323 503.975969 
L 282.689111 503.971074 
L 288.027899 503.965183 
L 293.366686 503.958093 
L 298.705474 503.949558 
L 304.044261 503.939286 
L 309.383049 503.926922 
L 314.721837 503.912041 
L 320.060624 503.894131 
L 325.399412 503.872575 
L 330.7382 503.846631 
L 336.076987 503.815408 
L 341.415775 503.777831 
L 346.754563 503.732611 
L 352.09335 503.678194 
L 357.432138 503.612714 
L 362.770926 503.533925 
L 368.109713 503.439131 
L 373.448501 503.325089 
L 378.787289 503.187907 
L 384.126076 503.022911 
L 389.464864 502.824491 
L 394.803651 502.585923 
L 400.142439 502.299146 
L 405.481227 501.954512 
L 410.820014 501.540484 
L 416.158802 501.043281 
L 421.49759 500.446476 
L 426.836377 499.730519 
L 432.175165 498.872199 
L 437.513953 497.844043 
L 442.85274 496.613637 
L 448.191528 495.142903 
L 453.530316 493.387336 
L 458.869103 491.295236 
L 464.207891 488.807001 
L 469.546679 485.854554 
L 474.885466 482.361019 
L 480.224254 478.240807 
L 485.563042 473.400316 
L 490.901829 467.739474 
L 496.240617 461.15441 
L 501.579404 453.541515 
L 506.918192 444.803106 
L 512.25698 434.854778 
L 517.595767 423.634291 
L 522.934555 411.111496 
L 528.273343 397.298395 
L 533.61213 382.257994 
L 538.950918 366.110319 
L 544.289706 349.033935 
L 549.628493 331.261677 
L 554.967281 313.070131 
L 560.306069 294.763514 
L 565.644856 276.653797 
L 570.983644 259.039729 
L 576.322432 242.187718 
L 581.661219 226.317056 
L 587.000007 211.591033 
L 592.338795 198.114282 
L 597.677582 185.935628 
L 603.01637 175.055021 
L 608.355157 165.432859 
L 613.693945 157.000123 
L 619.032733 149.668103 
L 624.37152 143.336906 
L 629.710308 137.902373 
L 635.049096 133.261302 
L 640.387883 129.315119 
L 645.726671 125.972224 
L 651.065459 123.149287 
L 656.404246 120.771765 
L 661.743034 118.773857 
L 667.081822 117.09811 
L 672.420609 115.694793 
L 677.759397 114.521171 
L 683.098185 113.540731 
L 688.436972 112.722433 
L 693.77576 112.039989 
L 699.114548 111.471209 
L 704.453335 110.997418 
L 709.792123 110.602928 
L 715.13091 110.274587 
L 720.469698 110.001389 
L 725.808486 109.774131 
L 731.147273 109.585129 
L 736.486061 109.42797 
L 741.824849 109.29731 
L 747.163636 109.188693 
" style="fill:none;stroke:#1f77b4;stroke-linecap:square;stroke-width:1.5;"/>
   </g>
   <g id="patch_3">
    <path d="M 108 504 
L 108 69.12 
" style="fill:none;stroke:#000000;stroke-linecap:square;stroke-linejoin:miter;stroke-width:0.8;"/>
   </g>
   <g id="patch_4">
    <path d="M 777.6 504 
L 777.6 69.12 
" style="fill:none;stroke:#000000;stroke-linecap:square;stroke-linejoin:miter;stroke-width:0.8;"/>
   </g>
   <g id="patch_5">
    <path d="M 108 504 
L 777.6 504 
" style="fill:none;stroke:#000000;stroke-linecap:square;stroke-linejoin:miter;stroke-width:0.8;"/>
   </g>
   <g id="patch_6">
    <path d="M 108 69.12 
L 777.6 69.12 
" style="fill:none;stroke:#000000;stroke-linecap:square;stroke-linejoin:miter;stroke-width:0.8;"/>
   </g>
   <g id="text_16">
    <!-- Growth Assumption - US -->
    <defs>
     <path d="M 59.515625 10.40625 
L 59.515625 29.984375 
L 43.40625 29.984375 
L 43.40625 38.09375 
L 69.28125 38.09375 
L 69.28125 6.78125 
Q 63.578125 2.734375 56.6875 0.65625 
Q 49.8125 -1.421875 42 -1.421875 
Q 24.90625 -1.421875 15.25 8.5625 
Q 5.609375 18.5625 5.609375 36.375 
Q 5.609375 54.25 15.25 64.234375 
Q 24.90625 74.21875 42 74.21875 
Q 49.125 74.21875 55.546875 72.453125 
Q 61.96875 70.703125 67.390625 67.28125 
L 67.390625 56.78125 
Q 61.921875 61.421875 55.765625 63.765625 
Q 49.609375 66.109375 42.828125 66.109375 
Q 29.4375 66.109375 22.71875 58.640625 
Q 16.015625 51.171875 16.015625 36.375 
Q 16.015625 21.625 22.71875 14.15625 
Q 29.4375 6.6875 42.828125 6.6875 
Q 48.046875 6.6875 52.140625 7.59375 
Q 56.25 8.5 59.515625 10.40625 
z
" id="DejaVuSans-71"/>
     <path d="M 4.203125 54.6875 
L 13.1875 54.6875 
L 24.421875 12.015625 
L 35.59375 54.6875 
L 46.1875 54.6875 
L 57.421875 12.015625 
L 68.609375 54.6875 
L 77.59375 54.6875 
L 63.28125 0 
L 52.6875 0 
L 40.921875 44.828125 
L 29.109375 0 
L 18.5 0 
z
" id="DejaVuSans-119"/>
     <path d="M 54.890625 33.015625 
L 54.890625 0 
L 45.90625 0 
L 45.90625 32.71875 
Q 45.90625 40.484375 42.875 44.328125 
Q 39.84375 48.1875 33.796875 48.1875 
Q 26.515625 48.1875 22.3125 43.546875 
Q 18.109375 38.921875 18.109375 30.90625 
L 18.109375 0 
L 9.078125 0 
L 9.078125 75.984375 
L 18.109375 75.984375 
L 18.109375 46.1875 
Q 21.34375 51.125 25.703125 53.5625 
Q 30.078125 56 35.796875 56 
Q 45.21875 56 50.046875 50.171875 
Q 54.890625 44.34375 54.890625 33.015625 
z
" id="DejaVuSans-104"/>
     <path d="M 34.1875 63.1875 
L 20.796875 26.90625 
L 47.609375 26.90625 
z
M 28.609375 72.90625 
L 39.796875 72.90625 
L 67.578125 0 
L 57.328125 0 
L 50.6875 18.703125 
L 17.828125 18.703125 
L 11.1875 0 
L 0.78125 0 
z
" id="DejaVuSans-65"/>
     <path d="M 18.109375 8.203125 
L 18.109375 -20.796875 
L 9.078125 -20.796875 
L 9.078125 54.6875 
L 18.109375 54.6875 
L 18.109375 46.390625 
Q 20.953125 51.265625 25.265625 53.625 
Q 29.59375 56 35.59375 56 
Q 45.5625 56 51.78125 48.09375 
Q 58.015625 40.1875 58.015625 27.296875 
Q 58.015625 14.40625 51.78125 6.484375 
Q 45.5625 -1.421875 35.59375 -1.421875 
Q 29.59375 -1.421875 25.265625 0.953125 
Q 20.953125 3.328125 18.109375 8.203125 
z
M 48.6875 27.296875 
Q 48.6875 37.203125 44.609375 42.84375 
Q 40.53125 48.484375 33.40625 48.484375 
Q 26.265625 48.484375 22.1875 42.84375 
Q 18.109375 37.203125 18.109375 27.296875 
Q 18.109375 17.390625 22.1875 11.75 
Q 26.265625 6.109375 33.40625 6.109375 
Q 40.53125 6.109375 44.609375 11.75 
Q 48.6875 17.390625 48.6875 27.296875 
z
" id="DejaVuSans-112"/>
     <path d="M 4.890625 31.390625 
L 31.203125 31.390625 
L 31.203125 23.390625 
L 4.890625 23.390625 
z
" id="DejaVuSans-45"/>
     <path d="M 8.6875 72.90625 
L 18.609375 72.90625 
L 18.609375 28.609375 
Q 18.609375 16.890625 22.84375 11.734375 
Q 27.09375 6.59375 36.625 6.59375 
Q 46.09375 6.59375 50.34375 11.734375 
Q 54.59375 16.890625 54.59375 28.609375 
L 54.59375 72.90625 
L 64.5 72.90625 
L 64.5 27.390625 
Q 64.5 13.140625 57.4375 5.859375 
Q 50.390625 -1.421875 36.625 -1.421875 
Q 22.796875 -1.421875 15.734375 5.859375 
Q 8.6875 13.140625 8.6875 27.390625 
z
" id="DejaVuSans-85"/>
     <path d="M 53.515625 70.515625 
L 53.515625 60.890625 
Q 47.90625 63.578125 42.921875 64.890625 
Q 37.9375 66.21875 33.296875 66.21875 
Q 25.25 66.21875 20.875 63.09375 
Q 16.5 59.96875 16.5 54.203125 
Q 16.5 49.359375 19.40625 46.890625 
Q 22.3125 44.4375 30.421875 42.921875 
L 36.375 41.703125 
Q 47.40625 39.59375 52.65625 34.296875 
Q 57.90625 29 57.90625 20.125 
Q 57.90625 9.515625 50.796875 4.046875 
Q 43.703125 -1.421875 29.984375 -1.421875 
Q 24.8125 -1.421875 18.96875 -0.25 
Q 13.140625 0.921875 6.890625 3.21875 
L 6.890625 13.375 
Q 12.890625 10.015625 18.65625 8.296875 
Q 24.421875 6.59375 29.984375 6.59375 
Q 38.421875 6.59375 43.015625 9.90625 
Q 47.609375 13.234375 47.609375 19.390625 
Q 47.609375 24.75 44.3125 27.78125 
Q 41.015625 30.8125 33.5 32.328125 
L 27.484375 33.5 
Q 16.453125 35.6875 11.515625 40.375 
Q 6.59375 45.0625 6.59375 53.421875 
Q 6.59375 63.09375 13.40625 68.65625 
Q 20.21875 74.21875 32.171875 74.21875 
Q 37.3125 74.21875 42.625 73.28125 
Q 47.953125 72.359375 53.515625 70.515625 
z
" id="DejaVuSans-83"/>
    </defs>
    <g transform="translate(340.268813 44.307675)scale(0.168 -0.168)">
     <use xlink:href="#DejaVuSans-71"/>
     <use x="77.490234" xlink:href="#DejaVuSans-114"/>
     <use x="118.572266" xlink:href="#DejaVuSans-111"/>
     <use x="179.753906" xlink:href="#DejaVuSans-119"/>
     <use x="261.541016" xlink:href="#DejaVuSans-116"/>
     <use x="300.75" xlink:href="#DejaVuSans-104"/>
     <use x="364.128906" xlink:href="#DejaVuSans-32"/>
     <use x="395.916016" xlink:href="#DejaVuSans-65"/>
     <use x="464.324219" xlink:href="#DejaVuSans-115"/>
     <use x="516.423828" xlink:href="#DejaVuSans-115"/>
     <use x="568.523438" xlink:href="#DejaVuSans-117"/>
     <use x="631.902344" xlink:href="#DejaVuSans-109"/>
     <use x="729.314453" xlink:href="#DejaVuSans-112"/>
     <use x="792.791016" xlink:href="#DejaVuSans-116"/>
     <use x="832" xlink:href="#DejaVuSans-105"/>
     <use x="859.783203" xlink:href="#DejaVuSans-111"/>
     <use x="920.964844" xlink:href="#DejaVuSans-110"/>
     <use x="984.34375" xlink:href="#DejaVuSans-32"/>
     <use x="1016.130859" xlink:href="#DejaVuSans-45"/>
     <use x="1052.214844" xlink:href="#DejaVuSans-32"/>
     <use x="1084.001953" xlink:href="#DejaVuSans-85"/>
     <use x="1157.195312" xlink:href="#DejaVuSans-83"/>
    </g>
    <!-- Growth decreasing 0% a day, over the next 5 days -->
    <defs>
     <path d="M 45.40625 27.984375 
Q 45.40625 37.75 41.375 43.109375 
Q 37.359375 48.484375 30.078125 48.484375 
Q 22.859375 48.484375 18.828125 43.109375 
Q 14.796875 37.75 14.796875 27.984375 
Q 14.796875 18.265625 18.828125 12.890625 
Q 22.859375 7.515625 30.078125 7.515625 
Q 37.359375 7.515625 41.375 12.890625 
Q 45.40625 18.265625 45.40625 27.984375 
z
M 54.390625 6.78125 
Q 54.390625 -7.171875 48.1875 -13.984375 
Q 42 -20.796875 29.203125 -20.796875 
Q 24.46875 -20.796875 20.265625 -20.09375 
Q 16.0625 -19.390625 12.109375 -17.921875 
L 12.109375 -9.1875 
Q 16.0625 -11.328125 19.921875 -12.34375 
Q 23.78125 -13.375 27.78125 -13.375 
Q 36.625 -13.375 41.015625 -8.765625 
Q 45.40625 -4.15625 45.40625 5.171875 
L 45.40625 9.625 
Q 42.625 4.78125 38.28125 2.390625 
Q 33.9375 0 27.875 0 
Q 17.828125 0 11.671875 7.65625 
Q 5.515625 15.328125 5.515625 27.984375 
Q 5.515625 40.671875 11.671875 48.328125 
Q 17.828125 56 27.875 56 
Q 33.9375 56 38.28125 53.609375 
Q 42.625 51.21875 45.40625 46.390625 
L 45.40625 54.6875 
L 54.390625 54.6875 
z
" id="DejaVuSans-103"/>
     <path d="M 72.703125 32.078125 
Q 68.453125 32.078125 66.03125 28.46875 
Q 63.625 24.859375 63.625 18.40625 
Q 63.625 12.0625 66.03125 8.421875 
Q 68.453125 4.78125 72.703125 4.78125 
Q 76.859375 4.78125 79.265625 8.421875 
Q 81.6875 12.0625 81.6875 18.40625 
Q 81.6875 24.8125 79.265625 28.4375 
Q 76.859375 32.078125 72.703125 32.078125 
z
M 72.703125 38.28125 
Q 80.421875 38.28125 84.953125 32.90625 
Q 89.5 27.546875 89.5 18.40625 
Q 89.5 9.28125 84.9375 3.921875 
Q 80.375 -1.421875 72.703125 -1.421875 
Q 64.890625 -1.421875 60.34375 3.921875 
Q 55.8125 9.28125 55.8125 18.40625 
Q 55.8125 27.59375 60.375 32.9375 
Q 64.9375 38.28125 72.703125 38.28125 
z
M 22.3125 68.015625 
Q 18.109375 68.015625 15.6875 64.375 
Q 13.28125 60.75 13.28125 54.390625 
Q 13.28125 47.953125 15.671875 44.328125 
Q 18.0625 40.71875 22.3125 40.71875 
Q 26.5625 40.71875 28.96875 44.328125 
Q 31.390625 47.953125 31.390625 54.390625 
Q 31.390625 60.6875 28.953125 64.34375 
Q 26.515625 68.015625 22.3125 68.015625 
z
M 66.40625 74.21875 
L 74.21875 74.21875 
L 28.609375 -1.421875 
L 20.796875 -1.421875 
z
M 22.3125 74.21875 
Q 30.03125 74.21875 34.609375 68.875 
Q 39.203125 63.53125 39.203125 54.390625 
Q 39.203125 45.171875 34.640625 39.84375 
Q 30.078125 34.515625 22.3125 34.515625 
Q 14.546875 34.515625 10.03125 39.859375 
Q 5.515625 45.21875 5.515625 54.390625 
Q 5.515625 63.484375 10.046875 68.84375 
Q 14.59375 74.21875 22.3125 74.21875 
z
" id="DejaVuSans-37"/>
     <path d="M 11.71875 12.40625 
L 22.015625 12.40625 
L 22.015625 4 
L 14.015625 -11.625 
L 7.71875 -11.625 
L 11.71875 4 
z
" id="DejaVuSans-44"/>
     <path d="M 2.984375 54.6875 
L 12.5 54.6875 
L 29.59375 8.796875 
L 46.6875 54.6875 
L 56.203125 54.6875 
L 35.6875 0 
L 23.484375 0 
z
" id="DejaVuSans-118"/>
     <path d="M 54.890625 54.6875 
L 35.109375 28.078125 
L 55.90625 0 
L 45.3125 0 
L 29.390625 21.484375 
L 13.484375 0 
L 2.875 0 
L 24.125 28.609375 
L 4.6875 54.6875 
L 15.28125 54.6875 
L 29.78125 35.203125 
L 44.28125 54.6875 
z
" id="DejaVuSans-120"/>
     <path d="M 10.796875 72.90625 
L 49.515625 72.90625 
L 49.515625 64.59375 
L 19.828125 64.59375 
L 19.828125 46.734375 
Q 21.96875 47.46875 24.109375 47.828125 
Q 26.265625 48.1875 28.421875 48.1875 
Q 40.625 48.1875 47.75 41.5 
Q 54.890625 34.8125 54.890625 23.390625 
Q 54.890625 11.625 47.5625 5.09375 
Q 40.234375 -1.421875 26.90625 -1.421875 
Q 22.3125 -1.421875 17.546875 -0.640625 
Q 12.796875 0.140625 7.71875 1.703125 
L 7.71875 11.625 
Q 12.109375 9.234375 16.796875 8.0625 
Q 21.484375 6.890625 26.703125 6.890625 
Q 35.15625 6.890625 40.078125 11.328125 
Q 45.015625 15.765625 45.015625 23.390625 
Q 45.015625 31 40.078125 35.4375 
Q 35.15625 39.890625 26.703125 39.890625 
Q 22.75 39.890625 18.8125 39.015625 
Q 14.890625 38.140625 10.796875 36.28125 
z
" id="DejaVuSans-53"/>
    </defs>
    <g transform="translate(228.894 63.12)scale(0.168 -0.168)">
     <use xlink:href="#DejaVuSans-71"/>
     <use x="77.490234" xlink:href="#DejaVuSans-114"/>
     <use x="118.572266" xlink:href="#DejaVuSans-111"/>
     <use x="179.753906" xlink:href="#DejaVuSans-119"/>
     <use x="261.541016" xlink:href="#DejaVuSans-116"/>
     <use x="300.75" xlink:href="#DejaVuSans-104"/>
     <use x="364.128906" xlink:href="#DejaVuSans-32"/>
     <use x="395.916016" xlink:href="#DejaVuSans-100"/>
     <use x="459.392578" xlink:href="#DejaVuSans-101"/>
     <use x="520.916016" xlink:href="#DejaVuSans-99"/>
     <use x="575.896484" xlink:href="#DejaVuSans-114"/>
     <use x="616.978516" xlink:href="#DejaVuSans-101"/>
     <use x="678.501953" xlink:href="#DejaVuSans-97"/>
     <use x="739.78125" xlink:href="#DejaVuSans-115"/>
     <use x="791.880859" xlink:href="#DejaVuSans-105"/>
     <use x="819.664062" xlink:href="#DejaVuSans-110"/>
     <use x="883.042969" xlink:href="#DejaVuSans-103"/>
     <use x="946.519531" xlink:href="#DejaVuSans-32"/>
     <use x="978.306641" xlink:href="#DejaVuSans-48"/>
     <use x="1041.929688" xlink:href="#DejaVuSans-37"/>
     <use x="1136.949219" xlink:href="#DejaVuSans-32"/>
     <use x="1168.736328" xlink:href="#DejaVuSans-97"/>
     <use x="1230.015625" xlink:href="#DejaVuSans-32"/>
     <use x="1261.802734" xlink:href="#DejaVuSans-100"/>
     <use x="1325.279297" xlink:href="#DejaVuSans-97"/>
     <use x="1386.558594" xlink:href="#DejaVuSans-121"/>
     <use x="1445.738281" xlink:href="#DejaVuSans-44"/>
     <use x="1477.525391" xlink:href="#DejaVuSans-32"/>
     <use x="1509.3125" xlink:href="#DejaVuSans-111"/>
     <use x="1570.494141" xlink:href="#DejaVuSans-118"/>
     <use x="1629.673828" xlink:href="#DejaVuSans-101"/>
     <use x="1691.197266" xlink:href="#DejaVuSans-114"/>
     <use x="1732.310547" xlink:href="#DejaVuSans-32"/>
     <use x="1764.097656" xlink:href="#DejaVuSans-116"/>
     <use x="1803.306641" xlink:href="#DejaVuSans-104"/>
     <use x="1866.685547" xlink:href="#DejaVuSans-101"/>
     <use x="1928.208984" xlink:href="#DejaVuSans-32"/>
     <use x="1959.996094" xlink:href="#DejaVuSans-110"/>
     <use x="2023.375" xlink:href="#DejaVuSans-101"/>
     <use x="2084.882812" xlink:href="#DejaVuSans-120"/>
     <use x="2144.0625" xlink:href="#DejaVuSans-116"/>
     <use x="2183.271484" xlink:href="#DejaVuSans-32"/>
     <use x="2215.058594" xlink:href="#DejaVuSans-53"/>
     <use x="2278.681641" xlink:href="#DejaVuSans-32"/>
     <use x="2310.46875" xlink:href="#DejaVuSans-100"/>
     <use x="2373.945312" xlink:href="#DejaVuSans-97"/>
     <use x="2435.224609" xlink:href="#DejaVuSans-121"/>
     <use x="2494.404297" xlink:href="#DejaVuSans-115"/>
    </g>
   </g>
   <g id="legend_1">
    <g id="patch_7">
     <path d="M 117.8 141.968125 
L 465.601562 141.968125 
Q 468.401563 141.968125 468.401563 139.168125 
L 468.401563 78.92 
Q 468.401563 76.12 465.601562 76.12 
L 117.8 76.12 
Q 115 76.12 115 78.92 
L 115 139.168125 
Q 115 141.968125 117.8 141.968125 
z
" style="fill:#ffffff;opacity:0.8;stroke:#cccccc;stroke-linejoin:miter;"/>
    </g>
    <g id="line2d_15">
     <path d="M 120.6 87.457812 
L 148.6 87.457812 
" style="fill:none;stroke:#1f77b4;stroke-linecap:square;stroke-width:1.5;"/>
    </g>
    <g id="line2d_16"/>
    <g id="text_17">
     <!-- Logistic model (Added 5 points): 1,204,116 -->
     <defs>
      <path d="M 9.8125 72.90625 
L 19.671875 72.90625 
L 19.671875 8.296875 
L 55.171875 8.296875 
L 55.171875 0 
L 9.8125 0 
z
" id="DejaVuSans-76"/>
      <path d="M 31 75.875 
Q 24.46875 64.65625 21.28125 53.65625 
Q 18.109375 42.671875 18.109375 31.390625 
Q 18.109375 20.125 21.3125 9.0625 
Q 24.515625 -2 31 -13.1875 
L 23.1875 -13.1875 
Q 15.875 -1.703125 12.234375 9.375 
Q 8.59375 20.453125 8.59375 31.390625 
Q 8.59375 42.28125 12.203125 53.3125 
Q 15.828125 64.359375 23.1875 75.875 
z
" id="DejaVuSans-40"/>
      <path d="M 8.015625 75.875 
L 15.828125 75.875 
Q 23.140625 64.359375 26.78125 53.3125 
Q 30.421875 42.28125 30.421875 31.390625 
Q 30.421875 20.453125 26.78125 9.375 
Q 23.140625 -1.703125 15.828125 -13.1875 
L 8.015625 -13.1875 
Q 14.5 -2 17.703125 9.0625 
Q 20.90625 20.125 20.90625 31.390625 
Q 20.90625 42.671875 17.703125 53.65625 
Q 14.5 64.65625 8.015625 75.875 
z
" id="DejaVuSans-41"/>
      <path d="M 11.71875 12.40625 
L 22.015625 12.40625 
L 22.015625 0 
L 11.71875 0 
z
M 11.71875 51.703125 
L 22.015625 51.703125 
L 22.015625 39.3125 
L 11.71875 39.3125 
z
" id="DejaVuSans-58"/>
     </defs>
     <g transform="translate(159.8 92.357812)scale(0.14 -0.14)">
      <use xlink:href="#DejaVuSans-76"/>
      <use x="55.697266" xlink:href="#DejaVuSans-111"/>
      <use x="116.878906" xlink:href="#DejaVuSans-103"/>
      <use x="180.355469" xlink:href="#DejaVuSans-105"/>
      <use x="208.138672" xlink:href="#DejaVuSans-115"/>
      <use x="260.238281" xlink:href="#DejaVuSans-116"/>
      <use x="299.447266" xlink:href="#DejaVuSans-105"/>
      <use x="327.230469" xlink:href="#DejaVuSans-99"/>
      <use x="382.210938" xlink:href="#DejaVuSans-32"/>
      <use x="413.998047" xlink:href="#DejaVuSans-109"/>
      <use x="511.410156" xlink:href="#DejaVuSans-111"/>
      <use x="572.591797" xlink:href="#DejaVuSans-100"/>
      <use x="636.068359" xlink:href="#DejaVuSans-101"/>
      <use x="697.591797" xlink:href="#DejaVuSans-108"/>
      <use x="725.375" xlink:href="#DejaVuSans-32"/>
      <use x="757.162109" xlink:href="#DejaVuSans-40"/>
      <use x="796.175781" xlink:href="#DejaVuSans-65"/>
      <use x="864.568359" xlink:href="#DejaVuSans-100"/>
      <use x="928.044922" xlink:href="#DejaVuSans-100"/>
      <use x="991.521484" xlink:href="#DejaVuSans-101"/>
      <use x="1053.044922" xlink:href="#DejaVuSans-100"/>
      <use x="1116.521484" xlink:href="#DejaVuSans-32"/>
      <use x="1148.308594" xlink:href="#DejaVuSans-53"/>
      <use x="1211.931641" xlink:href="#DejaVuSans-32"/>
      <use x="1243.71875" xlink:href="#DejaVuSans-112"/>
      <use x="1307.195312" xlink:href="#DejaVuSans-111"/>
      <use x="1368.376953" xlink:href="#DejaVuSans-105"/>
      <use x="1396.160156" xlink:href="#DejaVuSans-110"/>
      <use x="1459.539062" xlink:href="#DejaVuSans-116"/>
      <use x="1498.748047" xlink:href="#DejaVuSans-115"/>
      <use x="1550.847656" xlink:href="#DejaVuSans-41"/>
      <use x="1589.861328" xlink:href="#DejaVuSans-58"/>
      <use x="1623.552734" xlink:href="#DejaVuSans-32"/>
      <use x="1655.339844" xlink:href="#DejaVuSans-49"/>
      <use x="1718.962891" xlink:href="#DejaVuSans-44"/>
      <use x="1750.75" xlink:href="#DejaVuSans-50"/>
      <use x="1814.373047" xlink:href="#DejaVuSans-48"/>
      <use x="1877.996094" xlink:href="#DejaVuSans-52"/>
      <use x="1941.619141" xlink:href="#DejaVuSans-44"/>
      <use x="1973.40625" xlink:href="#DejaVuSans-49"/>
      <use x="2037.029297" xlink:href="#DejaVuSans-49"/>
      <use x="2100.652344" xlink:href="#DejaVuSans-54"/>
     </g>
    </g>
    <g id="PathCollection_3">
     <g>
      <use style="fill:#1f77b4;stroke:#1f77b4;" x="134.6" xlink:href="#m72aba785cb" y="109.232187"/>
     </g>
    </g>
    <g id="text_18">
     <!-- Data (Projected Growth 14.1%) -->
     <defs>
      <path d="M 19.671875 64.796875 
L 19.671875 37.40625 
L 32.078125 37.40625 
Q 38.96875 37.40625 42.71875 40.96875 
Q 46.484375 44.53125 46.484375 51.125 
Q 46.484375 57.671875 42.71875 61.234375 
Q 38.96875 64.796875 32.078125 64.796875 
z
M 9.8125 72.90625 
L 32.078125 72.90625 
Q 44.34375 72.90625 50.609375 67.359375 
Q 56.890625 61.8125 56.890625 51.125 
Q 56.890625 40.328125 50.609375 34.8125 
Q 44.34375 29.296875 32.078125 29.296875 
L 19.671875 29.296875 
L 19.671875 0 
L 9.8125 0 
z
" id="DejaVuSans-80"/>
      <path d="M 9.421875 54.6875 
L 18.40625 54.6875 
L 18.40625 -0.984375 
Q 18.40625 -11.421875 14.421875 -16.109375 
Q 10.453125 -20.796875 1.609375 -20.796875 
L -1.8125 -20.796875 
L -1.8125 -13.1875 
L 0.59375 -13.1875 
Q 5.71875 -13.1875 7.5625 -10.8125 
Q 9.421875 -8.453125 9.421875 -0.984375 
z
M 9.421875 75.984375 
L 18.40625 75.984375 
L 18.40625 64.59375 
L 9.421875 64.59375 
z
" id="DejaVuSans-106"/>
      <path d="M 10.6875 12.40625 
L 21 12.40625 
L 21 0 
L 10.6875 0 
z
" id="DejaVuSans-46"/>
     </defs>
     <g transform="translate(159.8 112.907187)scale(0.14 -0.14)">
      <use xlink:href="#DejaVuSans-68"/>
      <use x="77.001953" xlink:href="#DejaVuSans-97"/>
      <use x="138.28125" xlink:href="#DejaVuSans-116"/>
      <use x="177.490234" xlink:href="#DejaVuSans-97"/>
      <use x="238.769531" xlink:href="#DejaVuSans-32"/>
      <use x="270.556641" xlink:href="#DejaVuSans-40"/>
      <use x="309.570312" xlink:href="#DejaVuSans-80"/>
      <use x="369.857422" xlink:href="#DejaVuSans-114"/>
      <use x="410.939453" xlink:href="#DejaVuSans-111"/>
      <use x="472.121094" xlink:href="#DejaVuSans-106"/>
      <use x="499.904297" xlink:href="#DejaVuSans-101"/>
      <use x="561.427734" xlink:href="#DejaVuSans-99"/>
      <use x="616.408203" xlink:href="#DejaVuSans-116"/>
      <use x="655.617188" xlink:href="#DejaVuSans-101"/>
      <use x="717.140625" xlink:href="#DejaVuSans-100"/>
      <use x="780.617188" xlink:href="#DejaVuSans-32"/>
      <use x="812.404297" xlink:href="#DejaVuSans-71"/>
      <use x="889.894531" xlink:href="#DejaVuSans-114"/>
      <use x="930.976562" xlink:href="#DejaVuSans-111"/>
      <use x="992.158203" xlink:href="#DejaVuSans-119"/>
      <use x="1073.945312" xlink:href="#DejaVuSans-116"/>
      <use x="1113.154297" xlink:href="#DejaVuSans-104"/>
      <use x="1176.533203" xlink:href="#DejaVuSans-32"/>
      <use x="1208.320312" xlink:href="#DejaVuSans-49"/>
      <use x="1271.943359" xlink:href="#DejaVuSans-52"/>
      <use x="1335.566406" xlink:href="#DejaVuSans-46"/>
      <use x="1367.353516" xlink:href="#DejaVuSans-49"/>
      <use x="1430.976562" xlink:href="#DejaVuSans-37"/>
      <use x="1525.996094" xlink:href="#DejaVuSans-41"/>
     </g>
    </g>
    <g id="PathCollection_4">
     <g>
      <use style="fill:#ff7f0e;stroke:#ff7f0e;" x="134.6" xlink:href="#m515adb4317" y="129.781562"/>
     </g>
    </g>
    <g id="text_19">
     <!-- Data (Today) -->
     <g transform="translate(159.8 133.456562)scale(0.14 -0.14)">
      <use xlink:href="#DejaVuSans-68"/>
      <use x="77.001953" xlink:href="#DejaVuSans-97"/>
      <use x="138.28125" xlink:href="#DejaVuSans-116"/>
      <use x="177.490234" xlink:href="#DejaVuSans-97"/>
      <use x="238.769531" xlink:href="#DejaVuSans-32"/>
      <use x="270.556641" xlink:href="#DejaVuSans-40"/>
      <use x="309.570312" xlink:href="#DejaVuSans-84"/>
      <use x="370.388672" xlink:href="#DejaVuSans-111"/>
      <use x="431.570312" xlink:href="#DejaVuSans-100"/>
      <use x="495.046875" xlink:href="#DejaVuSans-97"/>
      <use x="556.326172" xlink:href="#DejaVuSans-121"/>
      <use x="615.505859" xlink:href="#DejaVuSans-41"/>
     </g>
    </g>
   </g>
  </g>
 </g>
 <defs>
  <clipPath id="p2d9774f878">
   <rect height="434.88" width="669.6" x="108" y="69.12"/>
  </clipPath>
 </defs>
</svg>
